<?xml version="1.0" standalone="no"?>
<!DOCTYPE svg PUBLIC "-//W3C//DTD SVG 1.1//EN" "http://www.w3.org/Graphics/SVG/1.1/DTD/svg11.dtd" >
<svg xmlns="http://www.w3.org/2000/svg">
<metadata>Generated by IcoMoon</metadata>
<defs>
<font id="icomoon" horiz-adv-x="1024">
<font-face units-per-em="1024" ascent="960" descent="-64" />
<missing-glyph horiz-adv-x="1024" />
<glyph unicode="&#x20;" horiz-adv-x="512" d="" />
<glyph unicode="&#xe900;" glyph-name="arrow-down4" d="M510.432 455.424l-510.432 224.928v-83.040l510.432-224.352 513.568 224.352v83.040l-513.568-224.928zM510.432 299.2l-510.432 225.888v-83.008l510.432-226.4 513.568 226.368v83.008l-513.568-225.856z" />
<glyph unicode="&#xe901;" glyph-name="zhang1" d="M990.080 279.68h-345.824v6.432c-28.704 27.136-46.624 64.64-46.624 106.016 0 39.328 16.224 74.912 42.4 101.6 0.096 0.032 0.128 0.032 0.288 0.064 0.064 0.192 0.288 0.256 0.416 0.288 8.832 9.024 18.912 17.056 29.856 23.744 47.104 43.648 76.832 106.4 76.832 176.256 0 132-105.408 239.008-235.36 239.008-130.016 0-235.392-107.008-235.392-239.008 0-69.856 29.76-132.608 76.928-176.256 10.912-6.688 20.864-14.72 29.76-23.744 0.224-0.032 0.352-0.096 0.544-0.288 0.032-0.032 0.064-0.032 0.192-0.064 26.144-26.688 42.304-62.304 42.304-101.6 0-41.376-17.856-78.88-46.496-106.016v-6.432h-345.92c-18.752 0-33.984-15.36-33.984-34.304v-204.8h1024v204.8c0 18.944-15.104 34.304-33.92 34.304zM45.216 13.312h933.664v-50.368h-933.664v50.368z" />
<glyph unicode="&#xe902;" glyph-name="key1" d="M995.808 563.936l-116.096 116.064 116.096 116.096c37.472 37.504 37.472 98.272 0 135.776-37.504 37.504-98.304 37.504-135.776 0l-336.48-336.544c-50.72 28.416-109.312 44.608-171.552 44.608-194.4 0-351.904-157.568-351.904-351.936s157.504-352 351.904-352c194.368 0 351.904 157.6 351.904 351.968 0 62.272-16.128 120.864-44.544 171.584l84.672 84.704 116.064-116.096c18.72-18.688 43.328-28.096 67.904-28.096 24.64 0 49.088 9.408 67.904 28.096 37.376 37.472 37.376 98.272-0.096 135.776zM465.056 174.912c-30.208-30.304-70.4-46.912-113.056-46.912s-82.88 16.608-113.056 46.912c-30.336 30.176-46.944 70.336-46.944 113.056s16.608 82.88 46.944 113.088c30.176 30.272 70.4 46.88 113.056 46.88s82.848-16.608 113.056-46.88c30.304-30.208 46.912-70.368 46.912-113.088s-16.608-82.88-46.912-113.056z" />
<glyph unicode="&#xe903;" glyph-name="switch1" d="M218.432 811.040c-34.24-22.944-64.736-48.864-91.424-77.888-26.72-28.992-49.568-60.32-68.704-93.984-19.040-33.568-33.504-69.28-43.424-106.88-9.952-37.568-14.88-75.68-14.88-114.368 0-66.56 13.568-129.056 40.576-187.328 27.136-58.432 63.744-109.312 109.952-152.608 46.048-43.328 100.224-77.728 162.432-103.040 62.176-25.504 128.736-38.176 199.68-38.176 70.048 0 136.256 12.672 198.432 38.176 62.208 25.312 116.576 59.68 163.136 103.040 46.368 43.296 83.008 94.144 109.76 152.608 26.656 58.24 40.032 120.736 40.032 187.328 0 38.016-4.704 75.264-14.304 111.744-9.504 36.48-23.136 71.264-40.64 104.192-17.568 32.928-39.264 63.744-65.184 92.384-25.952 28.576-54.944 54.368-87.008 77.312-16.736 11.488-34.88 15.68-54.368 12.8-19.424-2.816-35.2-11.68-47.36-26.784-12.32-15.008-16.8-31.872-13.76-50.464 3.008-18.592 12.576-33.696 28.576-45.152 48.064-32.896 84.864-73.344 110.368-121.344 25.568-47.936 38.304-99.488 38.304-154.688 0-47.264-9.568-91.776-28.512-133.696-19.072-41.952-45.248-78.496-78.4-109.504-33.152-31.2-72.16-55.872-116.768-74.208-44.512-18.112-92-27.328-142.304-27.328-50.432 0-97.952 9.216-142.496 27.328-44.672 18.336-83.552 43.040-116.672 74.208-33.152 31.008-59.488 67.552-78.944 109.504-19.488 41.92-29.184 86.432-29.184 133.696 0 55.872 13.696 108.672 41.12 158.432 27.488 49.792 66.048 90.816 115.616 123.008 16.8 10.752 26.88 25.376 30.304 44.064 3.424 18.56-0.672 35.744-12.064 51.552-11.392 15.008-27.008 24.128-46.88 27.296-19.872 3.328-38.112-0.48-55.008-11.232v0 0 0zM512.64 414.72c19.744 0 36.736 6.624 50.816 19.936 14.048 13.184 21.184 29.12 21.184 47.712v408.128c0 18.656-7.136 34.784-21.184 48.352-14.048 13.632-31.072 20.384-50.816 20.384-20.64 0-38.048-6.752-52.128-20.384-14.048-13.568-21.184-29.696-21.184-48.352v-408.128c0-18.592 7.136-34.528 21.184-47.712 14.048-13.312 31.488-19.936 52.128-19.936v0 0z" />
<glyph unicode="&#xe904;" glyph-name="lock3" d="M861.632 474.72h-645.44v133.728c0 162.144 132.704 294.048 295.808 294.048s295.808-131.936 295.808-294.048c0-14.784 12-26.752 26.912-26.752 14.88 0 26.912 11.968 26.912 26.752 0 191.648-156.832 347.52-349.632 347.52s-349.632-155.904-349.632-347.52v-133.728c-59.328 0-107.52-47.936-107.52-106.912v-320.832c0-59.008 48.192-106.944 107.52-106.944h699.264c59.328 0 107.52 47.936 107.52 106.944v320.832c0 58.976-48.192 106.912-107.52 106.912zM915.392 46.976c0-29.504-24.16-53.472-53.792-53.472h-699.232c-29.632 0-53.792 23.968-53.792 53.472v320.832c0 29.472 24.16 53.472 53.792 53.472h699.264c29.632 0 53.792-24 53.792-53.472v-320.832zM512 314.304c-29.696 0-53.792-23.936-53.792-53.472 0-19.744 10.88-36.8 26.912-46.048v-87.584c0-14.784 12.032-26.72 26.88-26.72s26.88 11.936 26.88 26.72v87.584c16 9.248 26.912 26.304 26.912 46.048 0 29.536-24.096 53.472-53.792 53.472z" />
<glyph unicode="&#xe905;" glyph-name="user6" d="M824.928 280.384c-9.632 9.664-25.184 9.664-34.752 0-9.632-9.728-9.632-25.44 0-35.104 74.304-74.912 115.264-174.56 115.264-280.48 0-13.696 11.008-24.768 24.576-24.768s24.576 11.104 24.576 24.768c-0.032 119.168-46.016 231.232-129.664 315.584zM512 955.968c-162.688 0-295.072-133.44-295.072-297.472 0-117.152 67.68-218.368 165.536-266.848-68.544-21.024-131.328-58.848-183.392-111.328-83.616-84.288-129.664-196.352-129.664-315.488 0-13.696 11.008-24.768 24.608-24.768 13.568 0 24.576 11.104 24.576 24.768 0 105.92 40.896 205.568 115.264 280.48 73.376 73.984 170.72 115.008 274.4 115.968 1.28 0 2.496-0.192 3.776-0.192 162.688 0 295.072 133.376 295.072 297.44-0.032 164-132.416 297.44-295.104 297.44zM513.536 410.688c-0.576 0.032-1.024 0.32-1.6 0.32-1.344 0-2.656-0.192-4-0.192-133.664 2.208-241.792 112.416-241.792 247.68 0 136.672 110.304 247.84 245.888 247.84s245.888-111.168 245.888-247.84c-0.032-136.128-109.504-246.976-244.384-247.808z" />
<glyph unicode="&#xe906;" glyph-name="user5" d="M841.408 474.528c-12.096 2.784-24.416-3.904-29.216-15.808l-0.256-0.672c-5.568-13.536 0.416-29.312 13.408-35.136 1.504-0.672 3.040-1.184 4.576-1.536 79.872-18.304 138.016-93.696 138.016-186.4 0-101.248-88.096-177.984-172.8-189.056-1.184-0.192-2.4-0.192-3.616-0.192h-574.816c-1.184 0-2.432 0-3.616 0.192-88.576 11.584-157.024 93.28-157.024 189.056 0 83.808 52.896 155.136 126.048 180.672 13.344 4.672 20.512 19.744 16.032 33.696-0.32 0.832-0.608 1.6-0.896 2.4l-0.448 0.992c-5.408 12.64-19.104 18.848-31.552 14.368-93.664-32.864-161.216-124.512-161.216-232.064 0-126.4 92.864-233.568 211.52-244.192 1.696-0.096 3.424-0.096 5.152 0.192 1.152 0.16 2.24 0.224 3.36 0.32h559.68c1.088-0.064 2.208-0.16 3.328-0.32 1.088-0.192 2.208-0.288 3.328-0.288h2.176c109.856 9.76 227.36 110.176 227.36 244.128 0.032 119.232-75.264 216-178.528 239.648zM359.84 457.184c-116.576-55.136-197.984-177.696-197.984-319.968 0-21.536 16.672-39.040 37.28-39.040 20.64 0 37.312 17.44 37.344 38.976 0 0.064 0 0.064 0 0.064 0 150.624 117.088 273.216 261.088 273.216s261.12-122.592 261.12-273.216c0-21.536 16.672-39.040 37.248-39.040 20.672 0 37.312 17.504 37.312 39.040 0 142.272-81.472 264.832-198.048 319.968v0c106.016 79.584 130.304 233.984 54.304 344.896-76.064 110.912-223.648 136.352-329.664 56.8s-130.336-233.984-54.336-344.864c15.040-21.952 33.408-41.088 54.336-56.832zM497.312 826.72c89.312 0 161.632-75.616 161.696-168.992 0.032-93.408-72.288-169.152-161.536-169.184-0.064 0-0.064 0-0.064 0-89.248 0.128-161.504 75.744-161.632 169.056-0.032 93.344 72.288 169.056 161.536 169.12z" />
<glyph unicode="&#xe907;" glyph-name="refresh1" d="M501.376 838.432c-7.040 14.304-21.184 28.64-35.328 28.64v7.168c-7.104 0-7.104 0-14.112 0l-282.752 78.784c-14.080 7.168-35.328 0-56.576-7.168-35.296-21.504-42.4-64.48-28.192-100.32 7.040-14.304 28.224-28.672 42.4-35.776l106.016-28.672c-84.8-78.784-148.416-193.408-148.416-329.472 0-179.136 106.016-329.504 261.504-394.016l35.328 143.264c-91.872 50.144-155.456 143.296-155.456 257.92 0 93.12 42.368 171.904 113.056 222.048l-42.432-150.432c-7.040-14.336 0-35.808 7.104-57.312 21.184-35.84 63.584-43.008 98.976-28.672 14.112 7.2 28.224 28.672 35.328 43.008l77.76 293.664c-0.064 21.504-0.064 42.976-14.208 57.344zM883.104 86.24l-113.088 28.672c98.944 78.784 162.528 193.408 162.528 329.504 0 179.072-106.016 329.504-254.4 394.016l-35.36-143.296c91.872-50.112 155.488-143.264 155.488-250.72 0-93.152-42.4-164.768-106.016-222.048l35.328 143.232c7.040 14.368 0 35.84-7.072 57.344-21.216 35.84-63.616 42.976-98.976 28.672-14.112-7.2-28.288-28.672-35.328-42.976l-77.76-293.728c-7.104-14.336 0-35.84 7.072-57.312 7.072-14.336 21.216-28.64 42.4-28.64v-7.168h7.104l289.792-78.816c14.112-7.2 35.328 0 56.544 7.136 35.328 21.536 42.432 64.512 28.288 100.288-21.248 21.536-35.36 35.84-56.544 35.84z" />
<glyph unicode="&#xe908;" glyph-name="move-up1" d="M534.304 727.136c-12.256 14.048-32.32 14.048-44.576 0l-366.624-422.752c-12.256-14.080-6.912-25.728 12-25.728h137.056c18.88 0 34.272-15.232 34.272-33.824v-270.976c0-18.592 15.328-33.856 34.24-33.856h342.656c18.88 0 34.24 15.264 34.24 33.856v270.976c0 18.592 15.36 33.824 34.24 33.824h137.056c18.944 0 24.256 11.616 12 25.728l-366.56 422.752zM169.344 820.544h685.344c37.888 0 68.512 30.272 68.512 67.712 0 37.408-30.624 67.712-68.512 67.712h-685.344c-37.92 0-68.576-30.304-68.576-67.712 0.032-37.44 30.688-67.712 68.576-67.712z" />
<glyph unicode="&#xe909;" glyph-name="write" d="M957.824 511.712c-25.76 0-54.336-20.16-54.336-46.016v-346.272c0 0-8.544-71.392-103.36-85.76h-591.040c0 0-93.472 7.328-94.368 106.56v610.496c0 0 7.36 89.6 103.424 92.928h308.512c25.76 0 45.92 29.312 45.92 55.168s-20.16 55.296-45.92 55.296h-324.032c-75.328 0-197.984-81.312-197.984-202.080v-627.36c0-63.648 77.184-184.64 186.304-184.64h639.136c62.272 0 183.488 72.864 183.488 190.752v334.912c0 25.856-29.984 46.016-55.744 46.016zM264.832 393.44c-0.96-15.648-1.888-36.928-2.688-63.264-1.408-44.32-2.144-88.544-2.144-88.96-0.224-12.672 4.704-24.896 13.632-33.888 8.768-8.768 20.64-13.728 32.992-13.728 0.256 0 0.512 0 0.768 0 0.448 0.032 44.512 0.736 88.672 2.176 26.176 0.8 47.36 1.76 63.008 2.688 28.8 1.792 46.176 2.848 60.608 17.312l448.896 450.72c0.224 0.224 0.448 0.448 0.672 0.672 0.32 0.352 0.672 0.672 0.992 1.024 65.504 65.76 65.504 172.704 0 238.496-65.504 65.728-172.064 65.728-237.568-0.032-0.352-0.352-0.672-0.672-0.992-1.024-0.224-0.192-0.448-0.416-0.672-0.64l-448.928-450.72c-14.4-14.432-15.488-31.904-17.248-60.832zM358.656 398.752l437.12 438.816c0.64 0.608 1.216 1.216 1.856 1.824 0.352 0.384 0.672 0.736 1.024 1.056 29.12 29.248 76.512 29.248 105.632 0 29.152-29.248 29.152-76.8 0-106.048-0.352-0.352-0.672-0.672-1.056-1.024-0.608-0.608-1.216-1.216-1.792-1.856l-437.152-438.848c-20.64-1.664-64.416-3.296-110.048-4.416 1.152 45.824 2.784 89.76 4.416 110.496z" />
<glyph unicode="&#xe90a;" glyph-name="book2" d="M704.576 1.984h-522.496c-98.176 0-178.048 79.872-178.048 178.048v535.904c0 98.176 79.872 178.080 178.048 178.080h522.464c98.144 0 178.048-79.904 178.048-178.080v-19.584c0-24.384-19.744-44.096-44.128-44.096-24.352 0-44.096 19.712-44.096 44.096v19.584c0 49.536-40.32 89.856-89.856 89.856h-522.432c-49.568 0-89.856-40.32-89.856-89.856v-535.872c0-49.568 40.288-89.856 89.856-89.856h522.464c49.536 0 89.856 40.288 89.856 89.856v227.616c0 24.352 19.744 44.096 44.096 44.096 24.384 0 44.128-19.744 44.128-44.096v-227.616c0-98.176-79.904-178.080-178.048-178.080zM65.888 149.12c-7.456 0-15.040 1.952-21.984 5.92-21.12 12.16-28.384 39.136-16.224 60.224 31.712 55.072 90.88 89.28 154.4 89.28h495.68c24.384 0 44.128-19.712 44.128-44.096s-19.744-44.128-44.128-44.128h-495.68c-32.064 0-61.952-17.248-77.952-45.056-8.16-14.208-23.008-22.144-38.24-22.144zM975.872 395.936c-11.296 0-22.592 4.32-31.2 12.928l-127.328 127.328c-17.248 17.216-17.248 45.152 0 62.368 17.216 17.248 45.12 17.248 62.336 0l127.36-127.328c17.216-17.248 17.216-45.184 0-62.368-8.608-8.608-19.872-12.928-31.168-12.928zM848.544 523.296c-11.328 0-22.592 4.32-31.2 12.928-17.248 17.216-17.248 45.12 0 62.368l127.328 127.36c17.184 17.248 45.12 17.248 62.368 0 17.216-17.216 17.216-45.12 0-62.368l-127.36-127.36c-8.576-8.64-19.872-12.928-31.136-12.928zM760 650.656c-24.352 0-44.096 19.744-44.096 44.096 0 24.32 19.712 44.096 44.096 44.096h206.912c24.352 0 44.096-19.744 44.096-44.096s-19.744-44.096-44.096-44.096h-206.912zM760 396.096c-24.352 0-44.096 19.744-44.096 44.096s19.712 44.096 44.096 44.096l206.912 0.032c24.352 0 44.096-19.776 44.096-44.096 0-24.352-19.744-44.096-44.096-44.096l-206.912-0.032zM705.856 215.2c-24.384 0-44.096 19.712-44.096 44.064v532.32c0 24.352 19.712 44.096 44.096 44.096 24.352 0 44.096-19.744 44.096-44.096v-532.32c0-24.352-19.776-44.064-44.096-44.064z" />
<glyph unicode="&#xe90b;" glyph-name="attention" d="M512 807.072c-22.816 0-41.28 18.464-41.28 41.28v66.304c0 22.816 18.464 41.312 41.28 41.312 22.784 0 41.312-18.464 41.312-41.312v-66.304c0-22.816-18.496-41.28-41.312-41.28zM512-59.968c-22.816 0-41.28 18.496-41.28 41.28v66.304c0 22.848 18.464 41.312 41.28 41.312 22.784 0 41.312-18.464 41.312-41.312v-66.304c0-22.784-18.496-41.28-41.312-41.28zM978.688 406.72h-66.304c-22.816 0-41.312 18.496-41.312 41.28 0 22.816 18.496 41.312 41.312 41.312h66.304c22.816 0 41.248-18.496 41.248-41.312 0-22.784-18.432-41.28-41.248-41.28zM111.648 406.72h-66.304c-22.848 0-41.28 18.496-41.28 41.28 0 22.816 18.432 41.312 41.28 41.312h66.304c22.816 0 41.28-18.496 41.28-41.312 0-22.784-18.464-41.28-41.28-41.28zM795.072 689.824c-10.56 0-21.12 4.032-29.184 12.096-16.128 16.096-16.128 42.24 0 58.4l46.912 46.88c16.128 16.128 42.24 16.128 58.368 0s16.128-42.272 0-58.368l-46.944-46.912c-8.032-8.064-18.592-12.096-29.152-12.096zM182.016 76.704c-10.56 0-21.12 4.032-29.216 12.096-16.128 16.128-16.128 42.24 0 58.368l46.912 46.912c16.16 16.128 42.272 16.128 58.4 0s16.128-42.24 0-58.368l-46.912-46.912c-8.064-8.064-18.624-12.096-29.184-12.096zM842.016 76.736c-10.56 0-21.12 4.032-29.184 12.064l-46.944 46.88c-16.128 16.16-16.128 42.272 0 58.4s42.24 16.128 58.368 0l46.944-46.88c16.128-16.128 16.128-42.24 0-58.368-8.064-8.064-18.624-12.096-29.184-12.096zM228.928 689.824c-10.56 0-21.152 4.032-29.216 12.096l-46.912 46.88c-16.128 16.096-16.128 42.24 0 58.368 16.16 16.128 42.272 16.128 58.4 0l46.912-46.88c16.128-16.128 16.128-42.272 0-58.4-8.064-8.032-18.624-12.064-29.184-12.064zM510.112 195.616c-3.456 0-7.008 0.448-10.528 1.376-153.184 40.192-261.856 158.656-270.336 294.752-5.248 83.872 44.96 156.32 122.080 176.064 65.568 16.768 151.68-8.576 196.096-103.072 9.696-20.672 0.8-45.248-19.808-54.944s-45.216-0.832-54.912 19.808c-26.016 55.328-69.12 66.304-100.896 58.208-29.92-7.68-63.616-36.096-60.192-90.976 6.272-100.448 90.24-188.864 208.928-220.032 22.048-5.792 35.232-28.32 29.408-50.4-4.832-18.464-21.504-30.784-39.84-30.784zM513.888 195.616c-18.304 0-35.040 12.32-39.904 30.816-5.792 22.048 7.392 44.64 29.44 50.4 118.688 31.2 202.656 119.584 208.896 220.032 3.424 54.88-30.24 83.296-60.128 90.976-31.68 8.096-74.88-2.912-100.928-58.24-9.696-20.64-34.24-29.504-54.912-19.776-20.64 9.696-29.472 34.272-19.776 54.944 44.48 94.528 130.592 119.872 196.128 103.072 77.12-19.744 127.328-92.192 122.048-176.064-8.512-136.096-117.12-254.528-270.368-294.752-3.488-0.96-7.040-1.408-10.496-1.408z" />
<glyph unicode="&#xe90c;" glyph-name="message3" d="M792.288 615.584h-560.576c-27.904 0-50.496 22.592-50.496 50.496 0 27.872 22.592 50.496 50.496 50.496h560.576c27.904 0 50.496-22.624 50.496-50.496 0-27.936-22.592-50.496-50.496-50.496zM472.288 188.608v0h-240.576c-27.904 0-50.496 22.624-50.496 50.496 0 27.904 22.624 50.496 50.496 50.496h240.576c27.904 0 50.496-22.624 50.496-50.496s-22.624-50.496-50.496-50.496zM792.288 402.080h-560.576c-27.904 0-50.496 22.592-50.496 50.464 0 27.904 22.592 50.496 50.496 50.496h560.576c27.904 0 50.496-22.592 50.496-50.496 0-27.872-22.592-50.464-50.496-50.464zM735.456-44.704h-50.016c-27.904 0-50.496 22.56-50.496 50.496 0 27.872 22.592 50.496 50.496 50.496h46.368c39.808 14.56 170.208 145.76 187.168 188.064v472.864c0 67.552-54.976 122.528-122.528 122.528h-568.928c-67.552 0-122.528-54.976-122.528-122.528v-538.432c0-67.552 54.976-122.496 122.528-122.496h242.496c27.904 0 50.464-22.624 50.464-50.496 0-27.936-22.56-50.496-50.464-50.496h-242.496c-123.264 0-223.488 100.256-223.488 223.488v538.432c0 123.232 100.256 223.52 223.488 223.52h568.96c123.264 0 223.488-100.288 223.488-223.52v-477.376c0-36.672-37.888-93.664-112.608-169.376-113.632-115.168-157.472-115.168-171.904-115.168zM681.824-39.552c-27.904 0-50.496 22.592-50.496 50.496v125.568c0 111.936 91.072 202.976 203.008 202.976h110.304c27.872 0 50.464-22.56 50.464-50.464 0-27.872-22.592-50.496-50.464-50.496h-110.304c-56.256 0-102.016-45.728-102.016-102.016v-125.568c-0.032-27.904-22.624-50.496-50.496-50.496z" />
<glyph unicode="&#xe90d;" glyph-name="user4" d="M969.472-42.72c-27.872 0-50.496 22.624-50.496 50.496 0 72.8-147.424 269.728-228.672 305.344-15.808 6.944-27.008 21.504-29.632 38.56s3.648 34.272 16.64 45.664c54.72 47.904 86.048 116.8 86.048 188.992 0 138.592-112.736 251.36-251.36 251.36s-251.36-112.768-251.36-251.36c0-72.224 31.328-141.12 86.016-188.992 12.96-11.36 19.264-28.608 16.64-45.664s-13.792-31.616-29.6-38.56c-81.216-35.648-228.672-232.544-228.672-305.344 0-27.872-22.624-50.496-50.496-50.496-27.904 0-50.496 22.624-50.496 50.496 0 100.128 125.664 277.696 231.008 361.12-48.48 61.6-75.392 138.048-75.392 217.44-0.032 194.304 158.048 352.384 352.352 352.384s352.384-158.080 352.384-352.384c0-79.36-26.976-155.808-75.424-217.44 105.376-83.392 231.040-260.96 231.040-361.12-0.032-27.872-22.624-50.496-50.528-50.496z" />
<glyph unicode="&#xe90e;" glyph-name="money" d="M808.8-59.968h-593.6c-116.448 0-211.168 94.752-211.168 211.168v593.6c0 116.416 94.72 211.168 211.168 211.168h593.6c116.448 0 211.136-94.752 211.136-211.168v-593.632c0-116.384-94.688-211.136-211.136-211.136zM215.2 854.464c-60.48 0-109.696-49.184-109.696-109.664v-593.632c0-60.48 49.216-109.664 109.696-109.664h593.6c60.448 0 109.696 49.184 109.696 109.664v593.632c0 60.48-49.248 109.664-109.696 109.664h-593.6zM499.008 489.6c-12.992 0-25.984 4.96-35.872 14.88l-120 119.968c-19.808 19.808-19.808 51.936 0 71.744s51.936 19.808 71.744 0l120-119.936c19.808-19.84 19.808-51.968 0-71.776-9.888-9.92-22.88-14.88-35.872-14.88zM525.024 489.6c-12.992 0-25.984 4.96-35.872 14.88-19.84 19.808-19.84 51.936 0 71.744l120 119.968c19.744 19.84 51.872 19.808 71.68 0s19.808-51.936 0-71.712l-119.936-120c-9.888-9.92-22.88-14.88-35.872-14.88zM668.448 432.832h-312.832c-28.032 0-50.752 22.72-50.752 50.752 0 28 22.72 50.752 50.752 50.752h312.832c28 0 50.688-22.752 50.688-50.752 0-28.032-22.688-50.752-50.688-50.752zM668.448 286.912h-312.832c-28.032 0-50.752 22.688-50.752 50.752 0 28 22.72 50.72 50.752 50.72h312.832c28 0 50.688-22.72 50.688-50.72 0-28.064-22.688-50.752-50.688-50.752zM512 165.344c-28.032 0-50.752 22.688-50.752 50.752v263.328c0 28.032 22.72 50.752 50.752 50.752 28 0 50.72-22.72 50.72-50.752v-263.328c0.032-28.064-22.72-50.752-50.72-50.752z" />
<glyph unicode="&#xe90f;" glyph-name="heart2" d="M484.224 3.616l-387.552 387.584c-40.544 40.512-69.6 88.352-83.52 140.352-13.248 49.824-12.576 103.168 5.344 157.152 15.68 47.232 43.168 89.92 78.304 124.384 35.392 34.688 79.008 61.536 126.496 76.64 55.584 17.664 110.432 17.984 161.856 4.512 45.92-12.096 88.832-35.168 126.848-66.784 38.144 31.52 81.056 54.592 126.848 66.656 51.456 13.376 106.368 13.12 161.856-4.608 47.52-15.104 91.136-41.92 126.528-76.576 35.168-34.496 62.592-77.248 78.336-124.384v-0.064l0.096 0.064c17.792-53.856 18.432-107.168 5.088-157.056-13.92-52.064-43.008-99.872-83.52-140.352l-1.952-1.888-385.888-385.632c-15.232-15.2-39.872-15.072-55.040 0.128l-0.128-0.128zM558.112 764.384l-124.736-124.768c-9.024-9.056-23.872-9.12-33.056-0.064-9.056 9.184-9.12 23.936-0.064 33.12l79.328 79.328-1.472 1.28c-33.376 31.744-71.808 54.72-112.736 65.536-37.696 9.92-77.92 9.632-118.528-3.328-35.584-11.296-68.544-31.52-95.424-57.952-26.656-26.208-47.424-58.24-58.976-93.312-12.896-38.688-13.312-76.832-3.872-112.48 10.272-38.304 32.416-74.24 63.392-105.312l360.032-360 360 360c31.040 31.072 53.088 67.008 63.424 105.216 9.408 35.392 8.768 73.632-4 112.48h0.16c-11.744 35.104-32.384 67.072-59.008 93.184-26.912 26.4-59.744 46.72-95.328 58.080-40.672 12.864-80.864 13.184-118.624 3.328-36.032-9.44-70.080-28.288-100.512-54.336z" />
<glyph unicode="&#xe910;" glyph-name="message2" d="M930.688-27.136c-7.072 0-14.048 1.888-20.448 5.6l-192.064 113.824c-64.992-24.736-134.24-37.28-206.176-37.28-280.128 0-507.968 194.752-507.968 434.016 0 239.36 227.84 434.080 507.968 434.080 280.032 0 507.936-194.72 507.936-434.080 0-106.336-44.384-206.944-125.888-286.112l73.504-174.432c6.624-15.968 2.432-34.304-10.56-45.76-7.488-6.464-16.864-9.856-26.304-9.856zM721.632 176.8c7.072 0 14.176-1.888 20.448-5.632l104.64-62.016-37.312 88.672c-6.752 16.064-2.368 34.592 10.752 45.92 77.312 66.4 119.808 153.536 119.808 245.28 0 195.232-192 354.016-427.936 354.016-235.968 0-427.936-158.816-427.936-354.016s191.936-353.984 427.904-353.984c68.16 0 133.408 13.024 193.984 38.624 5.024 2.080 10.336 3.136 15.648 3.136zM305.632 477.472c0-26.016 21.088-47.168 47.136-47.168s47.2 21.12 47.2 47.168c0 26.048-21.12 47.2-47.2 47.2-26.048 0-47.136-21.152-47.136-47.2zM458.944 477.472c0-26.016 21.088-47.168 47.136-47.168s47.168 21.12 47.168 47.168c0 26.048-21.12 47.2-47.168 47.2s-47.136-21.152-47.136-47.2zM612.256 477.472c0-26.016 21.12-47.168 47.136-47.168 26.048 0 47.2 21.12 47.2 47.168s-21.12 47.2-47.2 47.2c-26.016 0-47.136-21.152-47.136-47.2z" />
<glyph unicode="&#xe911;" glyph-name="good1" d="M919.264 520.608h-159.392c28.832 84.64 24.672 174.688-11.008 261.44-39.904 96.96-161.824 83.328-176.032-26.656l-0.64-4.544 0.256-4.576c1.44-23.328 4.256-112.768-10.56-135.456-47.36-5.856-88.32-7.264-121.824-29.952-4.864 7.84-10.432 15.264-17.344 21.632-18.080 16.256-41.44 25.184-65.792 25.184h-254.56c-54.112 0-98.336-44.192-98.336-98.368v-381.76c0-54.016 44.192-98.336 98.336-98.336h254.528c34.464 0 64.672 17.984 82.24 44.8h17.92c14.528 0 75.104-28.128 93.952-34.048 16.608-5.312 33.664-9.12 51.2-10.688 4.384-0.128 8.8-0.352 13.312-0.352h208.448c59.776 0 116.48 45.984 131.072 103.456l61.44 240.544c16.736 66.080-28 127.68-97.216 127.68zM406.112 147.552c0-26.976-22.176-49.152-49.216-49.152h-254.528c-26.944 0-49.216 22.176-49.216 49.152v381.76c0 27.136 22.272 49.28 49.216 49.28h254.528c12.544 0 24-4.896 32.832-12.608 6.816-6.176 11.776-14.336 14.336-23.36-2.272-3.616-4.512-7.264-6.656-11.264l8.704-49.664v-334.144zM878.848 391.648c53.6-2.496 80.032-10.688 80.256-24.576l-13.248-52.192c-10.56-16.64-40.896-25.248-91.104-25.44 47.872-2.144 74.144-9.152 79.36-20.544l-13.536-52.992c-12.32-14.592-41.632-22.144-88.704-22.336 45.408-2.080 71.296-8.352 78.304-18.688l-2.624-10.368c-9.44-36.544-46.912-66.592-83.616-66.592h-208.448c-59.904 0-117.344 45.184-158.432 45.184v328.416c0 4.384-0.736 8.608-1.856 12.704v44.096c27.424 29.76 65.408 27.648 117.088 34.336 46.976 5.952 54.624 90.080 49.12 186.4 8.192 63.424 62.624 61.696 81.984 14.336 45.952-111.584 27.328-213.12-20.448-291.84h236.288c31.904 0 53.152-22.944 51.552-53.088-9.76-17.664-40.256-26.688-91.936-26.816z" />
<glyph unicode="&#xe912;" glyph-name="weibo" d="M756.416 458.752c-39.488 7.648-20.256 29.024-20.256 29.024s38.624 63.872-7.68 110.304c-57.44 57.536-196.928-7.328-196.928-7.328-53.28-16.576-39.104 7.584-31.584 48.672 0 48.416-16.544 130.336-158.464 81.952-141.792-48.672-263.52-219.104-263.52-219.104-84.672-113.28-73.44-200.8-73.44-200.8 21.12-193.248 225.952-246.304 385.216-258.88 167.616-13.152 393.792 57.952 462.4 204 68.544 146.336-56.064 204.192-95.744 212.16zM402.176 97.12c-166.4-7.808-300.896 75.84-300.896 187.2 0 111.424 134.496 200.8 300.896 208.48 166.496 7.68 301.248-61.088 301.248-172.288-0.032-111.328-134.784-215.776-301.248-223.392zM368.96 419.36c-167.328-19.616-148-176.736-148-176.736s-1.696-49.76 44.864-75.136c97.92-53.152 198.688-20.992 249.664 44.992 50.912 65.952 21.12 226.368-146.528 206.88zM326.752 198.816c-31.232-3.648-56.416 14.4-56.416 40.64 0 26.048 22.368 53.408 53.632 56.672 35.872 3.456 59.264-17.28 59.264-43.488 0-26.144-25.344-50.272-56.48-53.824zM425.408 283.104c-10.592-7.936-23.616-6.848-29.184 2.656-5.824 9.248-3.648 24.128 7.008 31.968 12.384 9.28 25.312 6.592 30.88-2.72 5.664-9.472 1.632-23.744-8.704-31.904zM837.92 526.816c13.504 0 24.96 9.984 26.88 23.040 0.256 0.96 0.384 1.792 0.384 2.912 20.416 184.224-150.624 152.512-150.624 152.512-15.2 0-27.328-12.32-27.328-27.68 0-15.104 12.16-27.424 27.328-27.424 122.848 27.2 95.776-95.968 95.776-95.968 0-15.2 12.32-27.392 27.584-27.392zM817.984 848.352c-59.136 13.888-119.936 1.92-136.928-1.344-1.312-0.096-2.56-1.344-3.776-1.6-0.608-0.128-0.928-0.704-0.928-0.704-16.8-4.768-29.088-20.384-29.088-38.752 0-21.984 17.76-40 39.904-40 0 0 21.504 2.88 36.096 8.64 14.496 5.856 136.928 4.352 197.76-98.080 33.184-74.688 14.624-124.736 12.32-132.768 0 0-7.904-19.424-7.904-38.56 0-22.048 17.728-35.936 39.712-35.936 18.368 0 33.824 2.496 38.336 33.696h0.224c65.28 218.144-79.936 320.672-185.728 345.408z" />
<glyph unicode="&#xe913;" glyph-name="weixin" d="M691.744 609.664c11.68 0 23.232-0.832 34.624-2.080-31.136 143.36-186.016 249.888-362.784 249.888-197.664 0-359.552-133.312-359.552-302.592 0-97.728 53.856-177.984 143.872-240.192l-35.968-107.072 125.728 62.4c44.992-8.8 81.056-17.92 125.952-17.92 11.296 0 22.464 0.576 33.568 1.44-7.040 23.776-11.104 48.704-11.104 74.56-0.032 155.424 134.848 281.568 305.664 281.568zM498.432 706.144c27.072 0 44.992-17.632 44.992-44.416 0-26.688-17.952-44.544-44.992-44.544-26.976 0-54.016 17.856-54.016 44.544 0.032 26.816 27.040 44.416 54.016 44.416zM246.784 617.216c-26.976 0-54.144 17.856-54.144 44.544 0 26.784 27.2 44.416 54.144 44.416s44.864-17.632 44.864-44.416c0-26.688-17.92-44.544-44.864-44.544zM1019.968 332.352c0 142.24-143.904 258.208-305.472 258.208-171.072 0-305.824-115.968-305.824-258.208 0-142.432 134.752-258.144 305.824-258.144 35.808 0 71.936 8.864 107.872 17.824l98.656-53.44-27.072 88.896c72.224 53.568 126.016 124.608 126.016 204.864zM615.36 376.864c-17.92 0-35.968 17.632-35.968 35.616 0 17.728 18.048 35.552 35.968 35.552 27.168 0 44.992-17.856 44.992-35.552 0.032-17.984-17.824-35.616-44.992-35.616zM813.12 376.864c-17.76 0-35.68 17.632-35.68 35.616 0 17.728 17.952 35.552 35.68 35.552 26.976 0 44.992-17.856 44.992-35.552 0-17.984-18.016-35.616-44.992-35.616z" />
<glyph unicode="&#xe914;" glyph-name="qq" d="M70.848 370.56c-36.256-89.472-43.52-174.112-14.528-191.104 19.36-12.096 53.216 14.56 84.64 60.48 12.128-50.784 41.152-94.272 84.672-133.024-43.52-16.928-72.576-43.52-72.576-74.976 0-50.816 79.84-91.904 174.144-91.904 87.104 0 159.68 33.824 174.176 77.408h19.328c14.56-43.584 87.104-77.408 174.24-77.408 96.672 0 174.112 41.088 174.112 91.904 0 31.424-29.056 58.016-72.576 74.976 41.152 36.288 72.576 82.24 84.672 133.024 31.424-45.92 62.88-70.080 84.672-60.48 31.456 14.56 24.192 101.632-14.528 191.104-28.992 70.144-67.712 120.96-99.168 133.056 0 4.832 2.4 9.696 2.4 14.528 0 26.624-7.296 53.248-19.328 72.576v4.864c0 12.096-2.432 24.16-7.296 33.856-7.168 183.808-123.264 326.528-314.368 326.528-188.672 0-304.768-145.152-314.464-326.56-4.832-9.696-7.232-21.76-7.232-33.856v-4.864c-12.096-19.328-19.328-45.952-19.328-72.576v-14.528c-31.52-9.632-72.608-60.416-101.664-133.024z" />
<glyph unicode="&#xe915;" glyph-name="user3" d="M786.016 617.952c0-178.272-122.624-322.656-274.016-322.656-151.232 0-273.952 144.416-273.952 322.656 0 178.144 122.72 322.656 273.952 322.656 151.392 0.032 274.016-144.512 274.016-322.656zM657.984 219.36c-44.992-20.864-94.24-32.608-145.952-32.608-51.552 0-100.864 11.712-145.92 32.608-197.824-34.816-345.056-138.656-362.048-264h1015.936c-16.832 125.344-164.288 229.216-362.016 264z" />
<glyph unicode="&#xe916;" glyph-name="vertical-alignbottom" d="M631.616 529.44h230.048v-453.376h-230.048v453.376zM0 26.112h1024v-48.128h-1024v48.128zM400.992 819.936h-230.016v-743.872h230.016v743.872zM196.832 110.816v685.632h178.688v-685.632h-178.688z" />
<glyph unicode="&#xe917;" glyph-name="vertical-aligntop" d="M631.616 819.936h230.048v-453.376h-230.048v453.376zM0 924.128h1024v-48.128h-1024v48.128zM400.992 819.936h-230.016v-743.872h230.016v743.872zM196.832 110.816v685.632h178.688v-685.632h-178.688z" />
<glyph unicode="&#xe918;" glyph-name="vertical-aligncenter" d="M631.616 674.688h230.048v-453.376h-230.048v453.376zM0 472.064h1024v-48.128h-1024v48.128zM400.992 819.936h-230.016v-743.872h230.016v743.872zM196.832 110.816v685.632h178.688v-685.632h-178.688z" />
<glyph unicode="&#xe919;" glyph-name="weixin_log1" d="M691.84 611.008c11.616 0 23.136-0.864 34.592-2.144-31.136 144.48-185.984 251.808-362.784 251.808-197.664 0-359.616-134.336-359.616-304.928 0-98.496 53.92-179.36 143.936-242.080l-35.968-107.936 125.664 62.848c44.992-8.832 81.088-17.984 126.016-17.984 11.264 0 22.464 0.544 33.536 1.408-7.040 24-11.072 49.12-11.072 75.136-0.032 156.704 134.848 283.872 305.696 283.872v0zM498.432 708.224c27.072 0 45.024-17.792 45.024-44.736s-17.984-44.896-45.024-44.896c-26.944 0-53.984 17.984-53.984 44.896 0.032 26.944 27.040 44.736 53.984 44.736zM246.848 618.56c-26.944 0-54.176 17.984-54.176 44.896 0 26.976 27.2 44.736 54.176 44.736 26.912 0 44.864-17.792 44.864-44.736 0-26.912-17.952-44.896-44.864-44.896zM1019.968 331.488c0 143.328-143.84 260.192-305.408 260.192-171.104 0-305.824-116.864-305.824-260.192 0-143.648 134.72-260.288 305.824-260.288 35.776 0 71.936 9.024 107.904 18.016l98.592-53.92-27.040 89.664c72.192 54.048 125.952 125.632 125.952 206.528v0zM615.392 376.352c-17.92 0-36 17.76-36 35.872 0 17.888 18.080 35.84 36 35.84 27.2 0 44.992-17.984 44.992-35.84 0.032-18.144-17.792-35.872-44.992-35.872v0zM813.152 376.352c-17.76 0-35.712 17.76-35.712 35.872 0 17.888 17.984 35.84 35.712 35.84 26.976 0 45.056-17.984 45.056-35.84 0-18.144-18.080-35.872-45.056-35.872v0z" />
<glyph unicode="&#xe91a;" glyph-name="sina_log1" d="M756.448 458.912c-39.52 7.776-20.32 29.44-20.32 29.44s38.656 64.704-7.648 111.808c-57.408 58.272-196.896-7.456-196.896-7.456-53.28-16.768-39.168 7.648-31.584 49.344 0 49.024-16.608 132.032-158.464 83.008-141.856-49.312-263.52-222.016-263.52-222.016-84.672-114.752-73.44-203.456-73.44-203.456 21.12-195.808 225.952-249.6 385.184-262.272 167.616-13.408 393.856 58.656 462.4 206.688 68.576 148.16-56.064 206.88-95.712 214.912v0zM402.144 92.448c-166.336-7.904-300.864 76.832-300.864 189.664 0 112.864 134.528 203.52 300.864 211.296 166.496 7.776 301.28-61.92 301.28-174.592 0-112.832-134.752-218.688-301.28-226.368v0zM368.928 419.008c-167.328-19.936-147.968-179.2-147.968-179.2s-1.728-50.368 44.864-76.064c97.984-53.888 198.72-21.28 249.664 45.536 51.008 66.88 21.088 229.44-146.56 209.728zM326.784 195.488c-31.264-3.744-56.48 14.496-56.48 41.12 0 26.4 22.368 54.112 53.664 57.44 35.872 3.488 59.232-17.536 59.232-44.064 0-26.464-25.28-50.912-56.416-54.496v0zM425.408 280.832c-10.592-8.032-23.584-6.912-29.216 2.72-5.792 9.44-3.616 24.48 7.136 32.384 12.384 9.44 25.28 6.72 30.848-2.72 5.6-9.664 1.536-24.064-8.768-32.384zM837.984 527.808c13.44 0 24.896 10.144 26.88 23.392 0.16 0.992 0.288 1.856 0.288 2.912 20.48 186.688-150.528 154.56-150.528 154.56-15.168 0-27.36-12.48-27.36-28.032 0-15.296 12.224-27.808 27.36-27.808 122.848 27.52 95.712-97.248 95.712-97.248-0.032-15.424 12.384-27.776 27.648-27.776zM818.016 853.696c-59.104 14.080-119.904 1.952-136.96-1.376-1.312-0.096-2.528-1.376-3.776-1.632-0.576-0.096-0.96-0.736-0.96-0.736-16.704-4.832-29.088-20.608-29.088-39.296 0-22.208 17.792-40.48 39.936-40.48 0 0 21.536 2.848 36.096 8.672 14.496 5.888 136.928 4.416 197.76-99.36 33.216-75.744 14.624-126.432 12.288-134.56 0 0-7.904-19.712-7.904-39.072 0-22.368 17.792-36.416 39.776-36.416 18.4 0 33.824 2.56 38.336 34.144h0.192c65.312 221.12-79.968 325.024-185.696 350.112v0z" />
<glyph unicode="&#xe91b;" glyph-name="download3" d="M921.632 917.856h-819.296c-54.24 0-98.304-42.112-98.304-94.016v-546.304c0-51.936 44.064-93.088 98.304-93.088h819.296c54.272 0 98.336 41.152 98.336 93.088v546.304c0 51.904-44.064 94.016-98.336 94.016zM558.56 206.848h-67.712v67.104h67.712v-67.104zM954.432 377.024c0-34.624-29.376-63.648-65.568-63.648h-753.728c-36.256 0-65.568 29.024-65.568 63.648v415.424c0 34.656 29.312 63.712 65.568 63.712h753.76c36.192 0 65.568-29.024 65.568-63.712v-415.424zM659.84 42.784v82.176l-295.328-0.384v-84.448l-59.712-30.656c0 0-19.776-32.288 9.6-31.328h394.272c0 0 27.328 13.056 13.6 26.080-13.6 13.12-62.432 38.56-62.432 38.56zM533.152 458.656v287.936c-0.608 11.808-10.688 20.896-22.496 20.32-11.008-0.544-19.808-9.344-20.352-20.32v-286.624l-144.448 144.288c-8.096 8.608-21.696 8.992-30.272 0.896-8.64-8.096-9.024-21.632-0.928-30.24 0.32-0.32 0.64-0.64 0.928-0.896-0.032 0 181.696-182.368 182.016-182.624 8.064-7.2 20.224-7.2 28.256 0l183.104 182.4c8.32 8.352 8.32 21.856 0 30.208-8.416 8.32-21.92 8.32-30.272 0l-145.536-145.344z" />
<glyph unicode="&#xe91c;" glyph-name="preview2" d="M944.096-9.6l-34.88-38.816c-13.728-15.392-35.968-15.392-49.792 0l-140.768 156.384c-33.888-21.92-73.28-34.624-115.392-34.624-124.352 0-231.872 117.984-235.456 255.648l5.92 65.6c4.96 23.328 13.184 44.928 23.392 65.44l46.176 65.408c-0.416-0.544-0.672-1.248-1.024-1.728 40.672 41.376 94.4 67.232 153.984 67.232 126.688 0 236.256-121.856 236.256-262.656 0-48.608-12.064-93.76-33.088-132.352l139.84-155.648c13.696-15.296 18.688-34.656 4.832-49.888zM596.224 512.48c-87.584 0-158.56-78.912-158.56-176.448 0-97.376 78.080-184.224 165.6-184.224 87.744 0 158.72 79.040 158.72 176.352-0.032 97.632-78.048 184.32-165.76 184.32v0zM662.56 825.088h-531.808v-654.816h199.776c12.608-48.768 82.88-113.376 112.736-130.848h-312.512c-32.704 0-59.072 29.184-59.072 65.44v785.664c0 36.224 26.336 65.44 59.072 65.44h531.808c32.608 0 59.072-29.216 59.072-65.44v-274.112c-9.92 0.992-28 14.432-59.072 18.528v190.144z" />
<glyph unicode="&#xe91d;" glyph-name="flag1" d="M152.48-59.968h-70.4l2.24 1015.936 68.16-41.6v-974.336zM941.92 600.864l-798.752-317.696v636.832l798.752-319.136z" />
<glyph unicode="&#xe91e;" glyph-name="list3" d="M0 910.656h377.28v-335.392h-377.28v335.392zM646.752 910.656h377.248v-335.392h-377.248v335.392zM0 328.64h377.28v-335.36h-377.28v335.36zM646.752 328.64h377.248v-335.36h-377.248v335.36z" />
<glyph unicode="&#xe91f;" glyph-name="video4" d="M966.816 515.52c-15.712 4.672-28.864 3.008-41.984-5.312-40.224-25.44-80.8-50.496-121.312-75.68l-33.088-20.48c-2.88 10.272-6.016 20.928-11.104 30.848-5.6 10.848-13.088 20.416-20.384 29.6-0.192 0.192-0.288 0.384-0.384 0.544 97.344 66.304 111.488 173.568 82.24 247.968-34.912 88.672-125.632 144.736-228.384 140.448-48.672-2.144-92.64-17.696-130.688-46.080-41.024-30.656-68-69.44-80.64-115.616-33.568 61.056-88.32 97.952-155.584 103.424-86.176 7.008-162.144-31.936-199.744-100.864-29.568-54.080-37.152-140.448 33.856-211.776-37.344-26.496-55.936-63.488-55.552-110.112 0.544-49.536 0.352-99.136 0.256-148.704l-0.064-66.208c0.064-80.8 58.336-135.136 145.024-135.136h478.24c84.64 0 142.336 51.264 145.856 128.288l32.48-25.184c40.064-31.136 80.128-62.048 119.872-93.344 10.944-8.576 22.176-11.104 35.712-7.744 34.848 8.384 58.272 35.712 58.368 67.808 0.288 115.808 0.288 231.52 0.096 347.296-0.256 29.856-21.44 56.384-53.088 66.016zM928.288 421.984v-289.088l-81.632 63.328c-23.296 18.112-46.528 36.16-70.016 54.080-3.328 2.624-3.392 3.424-3.392 5.984 0.256 11.296 0.256 22.56 0.256 33.824 0 11.36-0.096 22.656 0.288 33.952 0 0.544 0.352 1.632 0.64 2.336 49.344 31.040 98.944 61.696 148.48 92.352l5.376 3.232zM604.288 792.992l1.088-13.44c76.832-0.576 139.328-59.008 139.328-130.432 0-34.72-14.592-67.456-41.12-92.192-26.4-24.704-61.6-38.24-99.232-38.24v0c-77.184 0.192-139.808 58.912-139.616 130.976 0.192 71.616 62.784 129.92 139.52 129.92v13.408h0.032zM95.136 384.672c0 33.024 18.208 49.888 54.208 49.888h479.392c35.072 0 53.664-17.024 53.664-49.312 0.096-73.248 0.096-146.496 0-219.744 0-31.2-18.4-48.448-51.68-48.512h-481.952c-36.16 0.064-53.664 16.512-53.664 50.304-0.064 72.32-0.064 144.864 0.032 217.376zM203.712 721.984v13.344l0.096-13.344c29.024-0.096 56.48-10.816 77.12-30.304 20.736-19.296 32.032-44.896 31.84-71.968-0.384-55.36-49.344-100.576-109.152-100.576-60.512 0.096-108.224 44.288-108.512 100.832-0.16 27.264 11.104 52.864 31.776 72.192 20.448 19.2 47.808 29.824 76.832 29.824zM420.992 520.064h-50.112c9.728 14.048 17.312 28.512 22.624 43.36 7.392-15.424 16.512-29.824 27.488-43.36z" />
<glyph unicode="&#xe920;" glyph-name="message1" d="M519.040 225.056h374.016c23.36 0 42.304 18.496 42.304 41.312v0 519.168c-0.096 22.816-18.944 41.312-42.304 41.312h-762.112c-23.36 0-42.304-18.4-42.304-41.312v0-519.168c0.096-22.752 18.944-41.312 42.304-41.312h148.192v-124.48l239.904 124.48zM539.776 142.080l-271.296-146.752c-40.832-22.080-73.952-2.912-73.952 42.848v103.904h-63.392c-70.272 0-127.104 55.712-127.104 124.64v518.432c-0.096 68.896 56.8 124.672 127.008 124.672 0 0 0 0 0.096 0h761.76c70.272 0 127.104-55.744 127.104-124.672v-518.432c0.096-68.8-56.8-124.64-127.008-124.64 0 0 0 0-0.096 0h-353.12zM279.136 453.344c-35.008 0-63.488 27.872-63.488 62.208 0 34.368 28.512 62.336 63.488 62.336 35.104-0.096 63.488-27.968 63.488-62.336 0-34.336-28.416-62.208-63.488-62.208zM512 453.344c-35.104 0-63.488 27.872-63.488 62.208 0 34.368 28.416 62.336 63.488 62.336 35.104-0.096 63.488-27.968 63.488-62.336 0-34.336-28.48-62.208-63.488-62.208zM744.864 453.344c-35.104 0-63.488 27.872-63.488 62.208 0 34.368 28.416 62.336 63.488 62.336 35.008-0.096 63.488-27.968 63.488-62.336-0.064-34.336-28.48-62.208-63.488-62.208z" />
<glyph unicode="&#xe921;" glyph-name="arrow-down3" d="M785.408 955.968l-546.816-1015.904 136.192 1015.904z" />
<glyph unicode="&#xe922;" glyph-name="menu_2" d="M342.72 955.968h-203.264c-74.432 0-135.424-60.928-135.424-135.424v-203.264c0-74.464 60.992-135.424 135.424-135.424h203.264c74.464 0 135.424 60.96 135.424 135.424v203.264c0 74.496-60.96 135.424-135.424 135.424zM410.368 617.28c0-37.216-30.496-67.648-67.648-67.648h-203.264c-37.216 0-67.712 30.432-67.712 67.648v203.264c0 37.216 30.496 67.712 67.712 67.712h203.264c37.152 0 67.648-30.496 67.648-67.712v-203.264zM342.72 414.144h-203.264c-74.432 0-135.424-60.96-135.424-135.424v-203.264c0-74.432 60.992-135.424 135.424-135.424h203.264c74.464 0 135.424 60.992 135.424 135.424v203.264c0 74.464-60.96 135.424-135.424 135.424zM410.368 75.456c0-37.216-30.496-67.712-67.648-67.712h-203.264c-37.216 0-67.712 30.496-67.712 67.712v203.264c0 37.152 30.496 67.648 67.712 67.648h203.264c37.152 0 67.648-30.496 67.648-67.648v-203.264zM884.544 955.968h-203.264c-74.464 0-135.424-60.928-135.424-135.424v-203.264c0-74.464 60.96-135.424 135.424-135.424h203.264c74.432 0 135.424 60.96 135.424 135.424v203.264c0 74.496-60.992 135.424-135.424 135.424zM952.256 617.28c0-37.216-30.496-67.648-67.712-67.648h-203.264c-37.152 0-67.648 30.432-67.648 67.648v203.264c0 37.216 30.496 67.712 67.648 67.712h203.264c37.216 0 67.712-30.496 67.712-67.712v-203.264zM884.544 414.144h-203.264c-74.464 0-135.424-60.96-135.424-135.424v-203.264c0-74.432 60.96-135.424 135.424-135.424h203.264c74.432 0 135.424 60.992 135.424 135.424v203.264c0 74.464-60.992 135.424-135.424 135.424zM952.256 75.456c0-37.216-30.496-67.712-67.712-67.712h-203.264c-37.152 0-67.648 30.496-67.648 67.712v203.264c0 37.152 30.496 67.648 67.648 67.648h203.264c37.216 0 67.712-30.496 67.712-67.648v-203.264z" />
<glyph unicode="&#xe923;" glyph-name="copyCheck" d="M342.72 955.968h-203.264c-74.432 0-135.424-60.928-135.424-135.424v-203.264c0-74.464 60.992-135.424 135.424-135.424h203.264c74.464 0 135.424 60.96 135.424 135.424v203.264c0 74.496-60.96 135.424-135.424 135.424zM410.368 617.28c0-37.216-30.496-67.648-67.648-67.648h-203.264c-37.216 0-67.712 30.432-67.712 67.648v203.264c0 37.216 30.496 67.712 67.712 67.712h203.264c37.152 0 67.648-30.496 67.648-67.712v-203.264zM342.72 414.144h-203.264c-74.432 0-135.424-60.96-135.424-135.424v-203.264c0-74.432 60.992-135.424 135.424-135.424h203.264c74.464 0 135.424 60.992 135.424 135.424v203.264c0 74.464-60.96 135.424-135.424 135.424zM410.368 75.456c0-37.216-30.496-67.712-67.648-67.712h-203.264c-37.216 0-67.712 30.496-67.712 67.712v203.264c0 37.152 30.496 67.648 67.712 67.648h203.264c37.152 0 67.648-30.496 67.648-67.648v-203.264zM884.544 955.968h-203.264c-74.464 0-135.424-60.928-135.424-135.424v-203.264c0-74.464 60.96-135.424 135.424-135.424h203.264c74.432 0 135.424 60.96 135.424 135.424v203.264c0 74.496-60.992 135.424-135.424 135.424zM952.256 617.28c0-37.216-30.496-67.648-67.712-67.648h-203.264c-37.152 0-67.648 30.432-67.648 67.648v203.264c0 37.216 30.496 67.712 67.648 67.712h203.264c37.216 0 67.712-30.496 67.712-67.712v-203.264zM884.544 414.144h-203.264c-74.464 0-135.424-60.96-135.424-135.424v-203.264c0-74.432 60.96-135.424 135.424-135.424h203.264c74.432 0 135.424 60.992 135.424 135.424v203.264c0 74.464-60.992 135.424-135.424 135.424zM952.256 75.456c0-37.216-30.496-67.712-67.712-67.712h-203.264c-37.152 0-67.648 30.496-67.648 67.712v203.264c0 37.152 30.496 67.648 67.648 67.648h203.264c37.216 0 67.712-30.496 67.712-67.648v-203.264z" />
<glyph unicode="&#xe924;" glyph-name="Load1" d="M412.544 884.128c31.008 13.376 62.016 21.312 95.552 21.312 129.12 0 232.448-106.272 232.448-239.168 0-45.12-12.896-87.648-33.632-124.864l-12.864 31.872c-5.152 13.344-20.672 18.656-33.6 13.344-12.832-5.344-18.016-21.28-12.832-34.528l36.128-87.68c2.56-5.28 7.712-10.656 15.456-13.312 2.56 0 5.152-2.688 10.304-2.688 2.656 0 7.808 0 10.304 2.688l85.248 39.904c10.336 5.28 15.488 21.216 10.336 34.528-5.184 13.216-20.672 18.56-33.568 13.216l-23.296-10.592c20.672 42.464 33.632 87.712 33.632 135.456 0 162.112-126.592 292.288-284.096 292.288-41.344 0-80.032-8-116.224-23.872-12.864-5.312-18.016-21.312-12.864-34.528 5.184-13.376 20.704-18.656 33.568-13.376zM234.336 793.856l23.296 10.656c-20.672-42.528-33.6-90.336-33.6-138.208 0-162.048 126.592-292.224 284.064-292.224 41.344 0 80.096 7.936 116.224 23.936 12.896 5.28 18.112 21.216 12.896 34.528-5.152 15.872-20.672 21.216-33.536 15.872-31.040-13.248-62.048-21.184-95.584-21.184-129.088 0-232.416 106.24-232.416 239.072 0 45.216 12.864 87.68 33.6 124.864l12.896-31.904c5.152-13.216 20.64-18.496 33.6-13.216 12.864 5.28 18.048 21.248 12.864 34.528l-36.16 85.056c-2.592 7.936-7.744 13.216-12.896 15.872-2.592 0-5.152 2.624-10.304 2.624-2.592 0-7.744 0-10.368-2.624l-85.216-39.808c-12.896-5.312-18.048-21.312-12.896-34.528 5.184-13.312 20.704-18.656 33.536-13.312zM884.512 776.32l-67.712-69.696 135.456-348.448h-270.944c0-105.856-66.464-174.208-169.312-174.208s-169.312 68.384-169.312 174.208h-270.944l135.488 348.448-67.744 69.696-135.456-418.144v-418.080h1015.936v418.080l-135.456 418.144zM952.256 9.76h-880.512v278.72h203.2c29.728-110.4 120.256-174.144 237.056-174.144 116.736 0 207.328 63.744 237.056 174.144h203.2v-278.72z" />
<glyph unicode="&#xe925;" glyph-name="versionCompare" d="M886.56 955.968h-749.312c-54.784 0-99.296-45.312-99.296-101.12v-813.824c0-55.744 44.384-100.992 99.136-100.992h749.728c54.848 0 99.232 45.248 99.232 101.056v813.536c-0.032 55.968-44.512 101.344-99.488 101.344zM910.304 87.648c0-38.080-30.304-68.96-67.744-68.96h-662.72c-36.544 0-66.144 30.144-66.144 67.36v723.488c0 37.44 29.792 67.776 66.528 67.776h663.296c36.896 0 66.816-30.4 66.816-67.968v-721.696zM380.896 325.728l152.896 419.648h-57.248l-114.72-327.936c-5.472-11.104-8.192-24.992-8.192-38.88-2.784 13.888-5.504 24.992-8.192 38.88l-114.688 327.936h-57.408l147.488-419.648h60.064zM733.184 559.2c-24.64 11.104-49.152 24.992-71.040 44.512-10.88 11.136-16.352 24.992-16.352 41.696 0 19.424 8.192 36.096 24.544 44.448 19.2 11.136 40.992 16.672 62.848 16.672 32.8 2.784 65.536-8.32 95.552-24.992v55.488c-27.328 11.136-60.064 16.736-90.144 16.736-40.864 0-79.104-11.2-109.184-33.408-27.328-19.424-40.928-50.016-40.928-83.328 0-22.208 5.408-44.448 19.104-61.184 21.856-24.992 51.936-44.448 81.984-58.4 21.824-11.104 40.864-22.208 60.064-33.312 10.912-5.568 19.104-13.92 24.608-24.992 5.44-8.352 8.128-19.456 8.128-30.56 0-41.696-30.016-63.968-87.36-63.968-21.824 0-40.928 2.784-60.032 11.2-19.136 5.568-35.52 13.888-51.872 27.776v-61.184c13.632-8.352 30.016-13.92 46.368-16.672 19.136-2.784 38.208-5.568 57.344-5.568 38.208-2.784 76.48 8.32 109.248 30.56 27.264 19.488 40.96 52.832 38.24 86.144 0 24.992-8.224 47.264-24.64 66.688-16.416 19.456-46.432 41.728-76.48 55.648zM768.672 142.208h-491.488c-16.416 0-27.36-11.104-27.36-27.776s10.976-27.776 27.36-27.776h491.488c16.352 0 27.328 11.136 27.328 27.776 0 16.704-10.976 27.776-27.328 27.776z" />
<glyph unicode="&#xe926;" glyph-name="analysis1" d="M117.472 763.104v-94.112c-26.4-22.432-43.168-55.84-43.168-93.152v-444.128c0-67.552 54.784-122.304 122.432-122.304h445.76c38.304 0 72.544 17.568 94.976 45.12h91.776c-15.392-65.504-74.304-114.24-144.672-114.24h-531.968c-82.048 0-148.576 66.368-148.576 148.384v530.208c0 69.824 48.32 128.48 113.44 144.224zM190.784 277.12v530.24c0 81.952 66.432 148.384 148.512 148.384h532.064c82.048 0 148.64-66.432 148.64-148.384v-530.24c0-82.016-66.56-148.384-148.64-148.384h-532.064c-82.080 0-148.512 66.4-148.512 148.384zM829.184 197.824c67.616 0 122.496 54.816 122.496 122.368v444.096c0 67.488-54.88 122.272-122.496 122.272h-445.696c-67.648 0-122.496-54.784-122.496-122.272v-444.096c0-67.552 54.848-122.368 122.496-122.368h445.696zM584.992 278.304v474.752h56.192v-474.72h-56.192zM409.696 278.304v339.2h56.192v-339.2h-56.192zM817.472 522.496v-244.16h-56.256v244.16h56.256z" />
<glyph unicode="&#xe927;" glyph-name="text_indent1" d="M423.968 883.392v-123.040h596v123.040h-596zM4.032 448h1015.936v119.904h-1012.416l-3.52-119.904zM7.552-59.968h1012.416v122.976h-1012.416v-122.976zM4.032 955.968v-268.16l244.064 134.048-244.064 134.112zM7.552 205.056h1012.416v123.040h-1012.416v-123.040z" />
<glyph unicode="&#xe928;" glyph-name="selectAll" d="M863.168 167.488c-0.192 0-0.416 0-0.672 0h-631.52l0.224 585.056c0.128 10.144-7.936 18.464-17.952 18.624-0.288 0-0.576 0-0.8 0h-46.912c-10.208 0.16-18.528-8.064-18.656-18.368 0-0.064 0-0.224 0-0.224l-0.288-627.744v-24.32c0-10.048 8.192-18.336 18.112-18.336h697.792c10.048-0.128 18.4 8 18.528 18.208 0 0.256 0 0.48 0 0.704v47.36c0.288 10.336-7.776 18.816-17.856 19.040zM722.624 25.344c-0.224 0-0.416 0-0.672 0h-631.52l0.256 585.024c0.16 10.144-7.904 18.464-18.016 18.624-0.256 0-0.544 0-0.8 0h-46.816c-10.208 0.192-18.624-8.064-18.752-18.336 0-0.064 0-0.224 0-0.224l-0.256-627.744v-24.32c0-10.080 8.192-18.336 18.112-18.336h697.76c10.080-0.128 18.4 8 18.56 18.208 0 0.256 0 0.48 0 0.704v47.456c0.256 10.24-7.808 18.752-17.856 18.944zM999.872 955.968h-694.592c-9.984-0.064-18.048-8.192-18.144-18.272v-702.592c0-10.016 8.064-18.272 18.144-18.272h694.592c9.888 0 18.048 8.16 18.048 18.272v702.656c-0.032 10.080-8.096 18.144-18.048 18.208zM933.632 302.080h-562.176v568.64h562.144v-568.64zM569.376 455.008l16.32-16.48c7.392-7.52 19.232-7.872 27.040 0l16.256 16.48 234.048 236.736c7.36 7.136 7.648 18.944 0.608 26.304-0.192 0.224-0.32 0.416-0.48 0.576l-33.184 33.504c-7.36 7.328-19.232 7.328-26.528-0.064l-204.32-206.592-72.064 72.896c-7.072 7.36-18.624 7.648-25.952 0.544-0.224-0.128-0.352-0.352-0.48-0.544l-33.184-33.536c-7.136-7.424-7.2-19.296 0-26.72l101.92-103.104z" />
<glyph unicode="&#xe929;" glyph-name="noCheck" d="M676.448-48.16h-328.896c-189.408 0-343.488 150.496-343.488 335.52v321.28c0 185.024 154.080 335.52 343.488 335.52h328.896c189.44 0 343.488-150.496 343.488-335.52v-321.28c0-184.96-154.048-335.52-343.488-335.52zM347.552 920.096c-175.808 0-318.816-139.68-318.816-311.424v-321.28c0-171.68 143.008-311.392 318.816-311.392h328.896c175.808 0 318.88 139.712 318.88 311.392v321.248c0 171.744-143.072 311.392-318.88 311.392l-328.896 0.064zM716.8 309.76l-141.6 138.24 141.568 138.24-63.2 61.792-141.568-138.272-141.504 138.272-63.232-61.792 141.568-138.24-141.568-138.24 63.232-61.792 141.504 138.336 141.568-138.336 63.232 61.792z" />
<glyph unicode="&#xe92a;" glyph-name="check1" d="M819.36 738.080c-195.2-116.864-336.8-264.32-400.448-338.272l-155.744 119.168-68.768-54.144 269.216-267.392c46.336 115.872 193.088 342.496 372.256 503.424l-16.512 37.216zM676.512-48.128h-328.96c-189.408 0-343.488 150.496-343.488 335.488v321.28c0 184.992 154.080 335.488 343.488 335.488h328.96c189.376 0 343.424-150.496 343.424-335.488v-321.28c0-184.992-154.048-335.488-343.424-335.488zM347.552 920.064c-175.776 0-318.816-139.712-318.816-311.424v-321.28c0-171.68 143.040-311.424 318.816-311.424h328.96c175.744 0 318.816 139.744 318.816 311.424v321.28c0 171.712-143.072 311.424-318.816 311.424h-328.96z" />
<glyph unicode="&#xe92b;" glyph-name="materialLibrary1" d="M221.632 593.12h290.368v72.608h-290.368v-72.608zM947.36 302.88v580.48h-290.24v72.608h-362.848l-217.632-217.728v-435.36h-72.608v-217.728c0-80.16 64.992-145.12 145.12-145.12h725.696c80.16 0 145.12 64.96 145.12 145.12v217.728h-72.608zM149.152 708.224l30.048 30.016h115.104v115.104l30.080 30.016h259.712v-580.512h-434.944v405.376zM657.12 85.152h-290.24v72.608h290.24v-72.608zM729.728 302.88h-72.608v507.968h72.608v-507.968zM874.848 302.88h-72.608v507.968h72.608v-507.968zM220.896 448h290.432v72.608h-290.432v-72.608z" />
<glyph unicode="&#xe92c;" glyph-name="onlinePuzzle1" d="M902.784 954.592h-781.536c-64.672 0-117.216-52.672-117.216-116.992v-779.264c0-64.512 52.544-116.864 117.216-116.864h834.464c0 0 28.16 4.864 36.544 26.432-3.648-1.12-7.328-2.304-11.328-2.304-21.6 0-39.328 17.568-39.328 39.2v14.752h-820.352c-21.472 0-39.296 17.632-39.296 39.072v778.944c0 21.44 17.824 39.008 39.296 39.008h781.312c21.504 0 39.008-17.568 39.008-39.008v-818.080h14.080c21.312 0 39.168-17.312 39.072-39.008 0-4.8-1.024-8.864-2.464-12.64 15.936 4.992 27.712 19.424 27.712 36.864v832.864c0 64.512-52.608 117.024-117.184 117.024zM176.448 351.264h430.976v430.944h-430.976v-430.944zM693.6 609.792h172.384v172.416h-172.384v-172.416zM693.6 351.264h172.384v172.352h-172.384v-172.352zM176.448 92.64h172.352v172.448h-172.352v-172.448zM435.008 92.64h172.416v172.448h-172.416v-172.448zM693.6 92.64h172.384v172.448h-172.384v-172.448z" />
<glyph unicode="&#xe92d;" glyph-name="localUpload1" d="M656.512 37.536h-537.28c-21.152 0-38.688 17.312-38.688 38.368v136.896l180.352 179.392c11.584 11.552 29.216 14.592 44.032 7.136l208.192-103.52c44.544-22.176 97.792-13.6 132.64 21.216l279.168 277.984v-289.76c0-21.28 17.408-38.464 38.624-38.464 21.184 0 38.368 17.408 38.368 38.464v381.6c0.032 0.672 0 1.28 0 1.92v152.256c0 63.328-51.68 114.944-115.104 114.944h-767.584c-63.584 0-115.2-51.744-115.2-114.944v-765.408c0-63.328 51.584-114.816 115.2-114.816h537.344c20.896 0 38.4 17.248 38.304 38.432 0 21.28-17.408 38.304-38.368 38.304zM80.544 841.024c0 21.056 17.536 38.304 38.688 38.304h767.328c21.12 0 38.304-17.248 38.304-38.304v-137.824l-333.28-332.032c-11.456-11.712-29.344-14.656-44-7.104l-208.128 103.872c-44.32 22.208-97.888 13.312-132.768-21.6l-126.144-125.664v520.352zM349.408 573.28c63.296 0 115.2 51.424 115.2 114.816 0 63.328-51.904 114.816-115.2 114.816-63.616 0-115.104-51.424-115.104-114.816 0-63.488 51.712-114.816 115.104-114.816zM349.408 726.208c21.152 0 38.336-17.12 38.336-38.176 0-21.216-17.28-38.336-38.336-38.336-21.12 0-38.464 17.12-38.464 38.336 0 21.056 17.536 38.176 38.464 38.176zM1007.712 160.64l-134.368 126.048c-10.912 13.312-27.232 21.248-44.896 21.248-17.824 0-34.112-7.648-45.216-21.248l-134.176-126.048c-15.648-14.656-16.352-38.752-1.792-54.24 14.56-15.328 38.816-15.872 54.016-1.536l88.992 83.264v-209.6c0-21.44 17.376-38.464 38.528-38.464 21.056 0 38.4 17.024 38.464 38.464v209.312l88.352-83.008c7.712-7.008 17.152-10.304 26.56-10.304 10.368 0 20.576 4.128 27.296 11.84 14.688 15.648 13.856 39.616-1.76 54.272z" />
<glyph unicode="&#xe92e;" glyph-name="preview1" d="M512 751.136c-280.576 0-507.968-303.136-507.968-303.136s227.392-303.136 507.968-303.136c280.544 0 507.936 303.136 507.936 303.136s-227.36 303.136-507.936 303.136zM512 204.224c-141.024 0-255.392 109.152-255.392 243.776s114.368 243.776 255.392 243.776c140.992 0 255.36-109.152 255.36-243.776s-114.368-243.776-255.36-243.776zM503.296 446.624l110.272 151.584c-30.432 19.808-67.2 31.36-106.848 31.36-105.088 0-190.24-81.28-190.24-181.6s85.152-181.6 190.24-181.6c104.544 0 189.344 80.576 190.176 180.224l-193.6 0.032zM650.016 614.496l-105.248-144.672h184.128c0 0.16 0 0.352 0 0.448-0.032 59.712-31.2 112.48-78.88 144.224z" />
<glyph unicode="&#xe92f;" glyph-name="batchRole" d="M956.48 130.528c35.040 0 63.488 28.384 63.488 63.456 0 35.040-28.48 63.488-63.488 63.488h-11.68c-2.176 6.272-4.576 12.224-7.36 18.176l8.16 8.064c24.8 24.896 24.8 65.024 0 89.856s-65.024 24.8-89.856 0l-8.064-8.16c-5.888 2.88-12 5.184-18.176 7.456v11.68c0 35.040-28.48 63.456-63.456 63.456-35.040 0-63.488-28.448-63.488-63.456v-11.68c-6.272-2.272-12.32-4.608-18.176-7.392l-8.064 8.16c-24.896 24.8-65.024 24.8-89.856 0-24.704-24.864-24.8-64.992 0-89.76l8.16-8.16c-2.88-6.016-5.248-11.968-7.456-18.24h-11.584c-35.040 0-63.488-28.48-63.488-63.488 0-35.104 28.48-63.456 63.488-63.456h11.68c2.176-6.272 4.576-12.224 7.36-18.176l-8.16-8.224c-24.8-24.736-24.8-64.864 0-89.76 24.8-24.8 65.024-24.8 89.856 0l8.064 8.096c5.888-2.752 11.904-5.056 18.176-7.328v-11.584c0-35.136 28.48-63.488 63.488-63.488s63.456 28.384 63.456 63.488v11.68c6.272 2.176 12.32 4.576 18.176 7.36l8.064-8.16c24.896-24.8 65.024-24.8 89.856 0 24.704 24.8 24.8 64.928 0 89.856l-8.16 8.16c2.816 5.888 5.248 11.968 7.36 18.144h11.68v-0.064zM766.016 67.040c-70.144 0-127.008 56.768-127.008 126.976s56.832 127.008 127.008 127.008c70.016 0 126.976-56.768 126.976-127.008-0.032-70.208-56.96-126.976-126.976-126.976zM678.528 822.016c50.656-16.704 87.456-63.808 87.456-120.064v-126.976c0-24.288-7.936-46.24-19.84-65.504 6.688 0.416 13.024 2.016 19.84 2.016 39.36 0 76.608-8.096 111.392-21.152 9.536 26.56 15.552 54.816 15.552 84.672v126.976c0 140.288-113.728 254.016-253.984 254.016-19.68 0-38.688-2.752-57.088-7.040 42.016-33.536 76-76.48 96.672-126.944zM475.296 67.040h-280.768c-35.040 0-63.488 28.384-63.488 63.488 28.32 109.44 135.744 190.464 253.984 190.464 29.376 0 58.080-5.024 85.088-14.24 27.328 71.488 79.68 129.824 146.464 165.664 13.984 31.456 22.432 65.984 22.432 102.592v126.976c0 140.288-113.728 254.016-254.016 254.016-140.256 0-253.984-113.728-253.984-254.016v-126.976c0-68 27.104-129.44 70.592-175.008-99.584-55.2-178.048-153.024-197.6-269.472 0-105.184 85.248-190.496 190.496-190.496h380.96c0.544 0 0.992 0.16 1.536 0.16-43.936 32.8-79.488 76-101.696 126.848zM258.016 701.984c0 70.048 56.864 127.008 127.008 127.008 70.048-0.032 126.976-56.8 126.976-127.008v-126.976c0-70.080-56.832-127.008-127.008-127.008-70.112 0-127.008 56.928-127.008 127.008v126.976z" />
<glyph unicode="&#xe930;" glyph-name="issueEditingCenter" d="M947.328 506.912v-412.672c0-44.992-36.672-81.632-81.664-81.632h-707.424c-45.088 0.032-81.6 36.576-81.664 81.632v707.488c0 45.024 36.64 81.632 81.728 81.632h398.496v72.576h-398.496c-85.152-0.032-154.208-69.056-154.272-154.208v-707.488c0-85.024 69.152-154.176 154.272-154.176h707.488c85.088 0.064 154.112 69.088 154.176 154.176v412.672h-72.64zM915.392 702.112l-143.904 146.464-362.752-355.232-25.024-24.928c-106.336-236.832-18.752-202.592 6.24-196.32 50.048 12.512 68.8 28.064 146.976 62.368l15.648 12.448 362.816 355.2zM815.296 901.568l21.92 21.824c40.672 40.512 100.096 49.856 131.328 15.584l34.432-34.304c31.296-31.136 28.128-90.368-12.544-130.88l-21.888-21.792z" />
<glyph unicode="&#xe931;" glyph-name="deleteRole1" d="M506.848 67.040h-282.304c-35.264 0-63.872 28.384-63.872 63.488 28.48 109.44 136.544 190.464 255.36 190.464 29.536 0 58.368-5.024 85.536-14.24 27.392 71.488 80.128 129.824 147.2 165.664 14.048 31.456 22.592 65.984 22.592 102.592v126.976c0 140.288-114.304 254.016-255.328 254.016s-255.36-113.728-255.36-254.016v-126.976c0-68 27.264-129.44 71.008-175.008-100.16-55.2-178.976-153.024-198.656-269.472 0-105.184 85.792-190.496 191.52-190.496h382.944c0.544 0 1.056 0.16 1.536 0.16-44.128 32.8-79.904 76-102.176 126.848zM288.352 701.984c0 70.048 57.152 127.008 127.68 127.008 70.432 0 127.648-56.768 127.648-127.008v-126.976c0-70.048-57.152-127.008-127.648-127.008-70.528 0-127.68 56.928-127.68 127.008v126.976zM971.776 101.28l-91.584 91.584 88.608 88.608c25.344 25.344 25.28 66.56-0.224 92.032-25.504 25.504-66.688 25.664-92.032 0.32l-88.64-88.672-91.648 91.584c-25.472 25.504-66.624 25.664-92.032 0.32-25.344-25.344-25.184-66.56 0.32-92.032l91.552-91.584-87.008-87.008c-25.312-25.344-25.152-66.56 0.32-92.032 25.504-25.504 66.624-25.664 92.032-0.256l86.944 86.944 91.584-91.584c25.472-25.472 66.688-25.632 92.032-0.224 25.408 25.312 25.248 66.528-0.224 92z" />
<glyph unicode="&#xe932;" glyph-name="editRole1" d="M476.736 67.040h-281.6c-35.2 0-63.712 28.384-63.712 63.488 28.48 109.44 136.224 190.464 254.816 190.464 29.472 0 58.24-5.024 85.344-14.24 27.36 71.488 79.968 129.824 146.816 165.664 14.112 31.456 22.592 65.984 22.592 102.592v126.976c0 140.288-114.080 254.016-254.752 254.016-140.704 0-254.816-113.728-254.816-254.016v-126.976c0-68 27.264-129.44 70.816-175.008-99.904-55.2-178.56-153.024-198.176-269.472 0-105.184 85.568-190.496 191.104-190.496h382.176c0.48 0 0.992 0.16 1.536 0.16-44.128 32.8-79.84 76-102.144 126.848zM258.784 701.984c0 70.048 57.088 127.008 127.424 127.008 70.304 0 127.36-56.768 127.36-127.008v-126.976c0-70.048-56.992-127.008-127.36-127.008-70.336 0-127.424 56.928-127.424 127.008v126.976zM544.352-9.152l121.984 38.176 282.208 281.376-83.552 83.392-282.304-281.472-38.336-121.472zM927.68 456.32l-34.88-34.72 83.648-83.328 34.816 34.656c11.584 11.584 11.584 30.208 0 41.76l-41.856 41.664c-11.392 11.488-30.176 11.488-41.728-0.032z" />
<glyph unicode="&#xe933;" glyph-name="deleteGroup1" d="M711.136 822.016c50.912-16.704 87.84-63.808 87.84-120.064v-126.976c0-24.288-7.936-46.24-19.84-65.504 6.72 0.416 13.024 2.016 19.84 2.016 39.68 0 77.056-8.096 112.032-21.152 9.6 26.56 15.712 54.816 15.712 84.672v126.976c0 140.288-114.336 254.016-255.36 254.016-19.84 0-38.912-2.752-57.376-7.040 42.112-33.536 76.288-76.48 97.152-126.944zM506.816 67.040h-282.368c-35.2 0-63.808 28.384-63.808 63.488 28.576 109.44 136.48 190.464 255.36 190.464 29.632 0 58.464-5.024 85.568-14.24 27.36 71.488 80 129.824 147.2 165.664 14.016 31.456 22.56 65.984 22.56 102.592v126.976c0 140.288-114.304 254.016-255.328 254.016s-255.36-113.728-255.36-254.016v-126.976c0-68 27.328-129.44 71.008-175.008-100.128-55.2-178.976-153.024-198.592-269.472 0-105.184 85.632-190.496 191.392-190.496h383.104c0.448 0 0.896 0.16 1.536 0.16-44.288 32.8-80 76-102.272 126.848zM288.32 701.984c0 70.048 57.152 127.008 127.68 127.008 70.496 0 127.68-56.768 127.68-127.008v-126.976c0-70.080-57.152-127.008-127.68-127.008s-127.68 56.928-127.68 127.008v126.976zM971.744 101.28l-91.584 91.584 88.608 88.608c25.44 25.344 25.28 66.56-0.224 92.032-25.504 25.504-66.688 25.664-92.032 0.32l-88.672-88.672-91.552 91.584c-25.504 25.504-66.72 25.664-92.064 0.32-25.312-25.344-25.184-66.56 0.32-92.032l91.584-91.584-87.008-87.008c-25.344-25.344-25.184-66.56 0.288-92.032 25.504-25.504 66.72-25.664 92.064-0.256l86.912 86.944 91.584-91.584c25.504-25.472 66.688-25.632 92.128-0.224 25.28 25.312 25.12 66.528-0.352 92z" />
<glyph unicode="&#xe934;" glyph-name="editGroup1" d="M682.112 822.016c50.88-16.704 87.808-63.808 87.808-120.064v-126.976c0-24.288-7.936-46.24-19.808-65.504 6.688 0.416 13.024 2.016 19.808 2.016 39.68 0 77.088-8.096 112.064-21.152 9.6 26.56 15.712 54.816 15.712 84.672v126.976c0 140.288-114.336 254.016-255.36 254.016-19.84 0-38.912-2.752-57.376-7.040 42.144-33.536 76.32-76.48 97.152-126.944zM477.824 67.040h-282.4c-35.2 0-63.808 28.384-63.808 63.488 28.576 109.44 136.48 190.464 255.36 190.464 29.6 0 58.432-5.024 85.536-14.24 27.392 71.488 80.064 129.824 147.232 165.664 14.048 31.456 22.592 65.984 22.592 102.592v126.976c0 140.288-114.304 254.016-255.328 254.016s-255.36-113.728-255.36-254.016v-126.976c0-68 27.328-129.44 71.008-175.008-100.16-55.2-178.976-153.024-198.592-269.472 0-105.184 85.632-190.496 191.392-190.496h383.104c0.448 0 0.896 0.16 1.504 0.16-44.256 32.8-79.968 76-102.24 126.848zM259.328 701.984c0 70.048 57.152 127.008 127.68 127.008 70.496 0 127.648-56.768 127.648-127.008v-126.976c0-70.048-57.152-127.008-127.648-127.008-70.528 0-127.68 56.928-127.68 127.008v126.976zM954.784 257.76h-129.568v125.376c0 35.808-29.152 64.864-65.248 64.864-36.032 0-65.248-29.056-65.248-64.864v-125.376h-129.6c-36.032 0-65.184-29.088-65.184-64.96 0-35.84 29.152-64.832 65.184-64.832h129.6v-123.040c0-35.872 29.216-64.864 65.248-64.864 36.096 0 65.248 28.992 65.248 64.864v123.040h129.568c36.032 0 65.184 28.992 65.184 64.832 0 35.872-29.152 64.96-65.184 64.96z" />
<glyph unicode="&#xe935;" glyph-name="addGroup1" d="M682.112 822.016c50.88-16.704 87.808-63.808 87.808-120.064v-126.976c0-24.288-7.936-46.24-19.808-65.504 6.688 0.416 13.024 2.016 19.808 2.016 39.68 0 77.088-8.096 112.064-21.152 9.6 26.56 15.712 54.816 15.712 84.672v126.976c0 140.288-114.336 254.016-255.36 254.016-19.84 0-38.912-2.752-57.376-7.040 42.144-33.536 76.32-76.48 97.152-126.944zM477.824 67.040h-282.4c-35.2 0-63.808 28.384-63.808 63.488 28.576 109.44 136.48 190.464 255.36 190.464 29.6 0 58.432-5.024 85.536-14.24 27.392 71.488 80.064 129.824 147.232 165.664 14.048 31.456 22.592 65.984 22.592 102.592v126.976c0 140.288-114.304 254.016-255.328 254.016s-255.36-113.728-255.36-254.016v-126.976c0-68 27.328-129.44 71.008-175.008-100.16-55.2-178.976-153.024-198.592-269.472 0-105.184 85.632-190.496 191.392-190.496h383.104c0.448 0 0.896 0.16 1.504 0.16-44.256 32.8-79.968 76-102.24 126.848zM259.328 701.984c0 70.048 57.152 127.008 127.68 127.008 70.496 0 127.648-56.768 127.648-127.008v-126.976c0-70.048-57.152-127.008-127.648-127.008-70.528 0-127.68 56.928-127.68 127.008v126.976zM954.784 257.76h-129.568v125.376c0 35.808-29.152 64.864-65.248 64.864-36.032 0-65.248-29.056-65.248-64.864v-125.376h-129.6c-36.032 0-65.184-29.088-65.184-64.96 0-35.84 29.152-64.832 65.184-64.832h129.6v-123.040c0-35.872 29.216-64.864 65.248-64.864 36.096 0 65.248 28.992 65.248 64.864v123.040h129.568c36.032 0 65.184 28.992 65.184 64.832 0 35.872-29.152 64.96-65.184 64.96z" />
<glyph unicode="&#xe936;" glyph-name="save1" d="M551.072 617.248c21.536 0 39.072 18.912 39.072 42.336v84.64c0 23.328-17.536 42.432-39.072 42.432-21.6 0-39.072-19.104-39.072-42.432v-84.64c0-23.424 17.472-42.336 39.072-42.336zM936.512 659.424l-0.32 0.672-266.784 288.384c-3.552 4.512-8.672 7.456-14.56 7.456h-455.424c-64.768 0-117.28-56.928-117.28-126.976v-762.016c0-70.016 52.512-126.976 117.28-126.976h625.12c64.768 0 117.28 56.928 117.28 126.976v578.080c0.032 5.632-2.048 10.688-5.312 14.4zM199.424 786.656c0 23.328 17.504 42.336 39.104 42.336h390.688c21.504 0 39.072-19.008 39.072-42.336v-169.408c0-23.328-17.568-42.272-39.072-42.272h-390.688c-21.6 0-39.104 18.944-39.104 42.272v169.408zM824.576 109.28c0-23.328-17.504-42.272-39.104-42.272h-546.944c-21.6 0-39.104 18.944-39.104 42.272v338.72c0 23.328 17.504 42.272 39.104 42.272h546.944c21.6 0 39.104-18.944 39.104-42.272v-338.72z" />
<glyph unicode="&#xe937;" glyph-name="branch1" d="M693.44 665.76v217.632c0 40.032-32.576 72.576-72.576 72.576h-217.76c-40 0-72.576-32.544-72.576-72.576v-217.664c0-40.096 32.576-72.64 72.576-72.64h217.76c40 0.032 72.576 32.576 72.576 72.672zM584.576 665.76h-145.12c-20.032 0-36.32 16.128-36.32 36.256v145.088c0 20.128 16.288 36.32 36.32 36.32h145.12c20.032 0 36.32-16.192 36.32-36.32v-145.088c-0.032-20.128-16.288-36.256-36.32-36.256zM149.152 266.56c20.096 0 36.32 16.224 36.32 36.32v108.864h290.272v-108.864c0-20.096 16.16-36.32 36.256-36.32s36.256 16.224 36.256 36.32v108.864h290.272v-108.864c0-20.096 16.224-36.32 36.32-36.32 20.064 0 36.256 16.224 36.256 36.32v145.12c0 20.096-16.192 36.256-36.256 36.256h-326.592v72.64c0 20.032-16.16 36.256-36.256 36.256s-36.256-16.224-36.256-36.256v-72.64h-326.592c-20.064 0-36.256-16.16-36.256-36.256v-145.12c0-20.096 16.192-36.32 36.256-36.32zM221.792 230.24h-145.184c-40.032 0-72.576-32.544-72.576-72.48v-145.184c0-40.032 32.544-72.576 72.576-72.576h145.184c39.936 0 72.48 32.544 72.48 72.576v145.184c-0.032 39.968-32.544 72.48-72.48 72.48zM221.792 48.896c0-20.128-16.288-36.32-36.32-36.32h-72.576c-20.128 0-36.32 16.192-36.32 36.32v72.576c0 20.032 16.192 36.32 36.32 36.32h72.576c20.032 0 36.32-16.288 36.32-36.32v-72.576zM947.392 230.24h-145.184c-39.936 0-72.48-32.544-72.48-72.48v-145.184c0-40.032 32.544-72.576 72.48-72.576h145.184c40.032 0 72.576 32.544 72.576 72.576v145.184c0 39.968-32.544 72.48-72.576 72.48zM947.392 48.896c0-20.128-16.192-36.32-36.32-36.32h-72.576c-20.032 0-36.32 16.192-36.32 36.32v72.576c0 20.032 16.288 36.32 36.32 36.32h72.576c20.128 0 36.32-16.288 36.32-36.32v-72.576zM584.576 230.24h-145.12c-40 0-72.576-32.544-72.576-72.48v-145.184c0-40.032 32.576-72.576 72.576-72.576h145.12c40 0 72.576 32.544 72.576 72.576v145.184c-0.032 39.968-32.576 72.48-72.576 72.48zM584.576 48.896c0-20.128-16.224-36.32-36.32-36.32h-72.512c-20.096 0-36.32 16.192-36.32 36.32v72.576c0 20.032 16.224 36.32 36.32 36.32h72.512c20.096 0 36.32-16.288 36.32-36.32v-72.576z" />
<glyph unicode="&#xe938;" glyph-name="phone2" d="M512.384 955.968c-27.744 0-50.592-22.88-50.592-50.784 0-27.936 22.848-50.816 50.592-50.816 222.784 0 405.056-182.88 405.056-406.368 0-27.904 22.752-50.784 50.528-50.784 27.904 0 50.656 22.88 50.656 50.784 0 279.36-227.776 507.968-506.24 507.968zM828.8 249.92l-151.872 124.416c-17.728 15.296-40.48 22.912-63.296 22.912-25.344 0-53.12-10.176-70.848-30.496-15.232-15.232-25.344-15.232-27.904-15.232-15.168 0-37.92 12.672-60.704 35.52-55.68 55.872-32.864 76.192-20.256 88.864 37.984 38.080 40.512 96.576 7.616 137.184l-124 152.384c-22.752 25.408-50.656 38.080-81.024 38.080-15.136 0-32.864-2.496-48.064-12.672-86.048-45.696-222.784-165.088-172.128-320 45.6-137.152 106.304-208.288 202.528-312.448l5.024-5.024c103.776-96.576 174.624-157.504 311.328-203.2 22.816-7.68 43.072-10.176 65.824-10.176 151.84 0 243.008 165.088 253.024 182.88 22.848 43.168 12.736 96.48-25.248 127.008zM601.024 41.632c-10.112 0-22.752 2.496-35.456 5.088-113.888 38.080-172.096 86.304-273.344 180.32-93.6 101.6-141.76 160-179.712 274.272-35.456 116.864 124 200.672 124 200.672l124.032-152.416c-70.848-71.104-53.12-160 20.256-233.696 43.040-43.2 88.64-66.016 131.584-66.016 35.456 0 68.416 15.232 101.28 45.728l151.84-124.512c0 0.064-68.32-129.44-164.48-129.44zM512.384 651.2c111.392 0 202.528-91.392 202.528-203.2 0-27.904 22.752-50.784 50.592-50.784 27.872 0 50.624 22.88 50.624 50.784 0 167.584-136.672 304.768-303.744 304.768-27.744 0-50.592-22.88-50.592-50.784 0-27.936 22.848-50.784 50.592-50.784z" />
<glyph unicode="&#xe939;" glyph-name="add-articles2" d="M800.384 12.672h-722.848v870.72h650.656v72.576h-722.816v-1015.936h867.168v435.328h-72.192v-362.688zM583.072 738.752h-433.568v-73.152h433.536v73.152zM583.072 593.728h-433.568v-73.152h433.536v73.152zM366.272 448h-216.768v-73.152h216.736v73.152zM149.504 230.304h216.736v73.152h-216.736v-73.152zM429.024 80.544l141.056 79.040 448.544 657.216-119.072 82.016-448.576-657.312-21.952-160.96z" />
<glyph unicode="&#xe93a;" glyph-name="removeDraft1" d="M429.824 251.488h432.128c21.664 0 39.008-17.344 39.008-39.104v-155.168c0-21.696-17.344-39.072-39.008-39.072h-231.552c-21.6 0-39.072-17.408-39.072-39.008 0-21.632 17.472-39.104 39.072-39.104h231.552c64.928 0 117.152 52.448 117.152 117.152v155.168c0 64.928-52.384 117.216-117.152 117.216h-430.24l98.432 98.368c15.2 15.296 14.752 39.552-0.544 54.816-14.816 14.816-39.744 15.392-54.72 0.48l-162.944-162.88c-1.152-0.896-2.272-1.92-3.36-2.976-2.048-2.048-3.872-4.384-5.408-6.816-10.016-15.104-8-35.456 5.344-48.832 1.216-1.216 2.528-2.336 3.808-3.328l162.56-162.56c15.296-15.296 39.52-14.752 54.816 0.544 14.784 14.816 15.456 39.744 0.544 54.72l-100.416 100.384zM902.752 838.624c-0.224 22.432-19.744 40.224-45.248 39.168l-689.408-0.096c-27.456 1.152-46.848-16.48-46.848-39.072v-781.376c0.288-20.448 20.896-39.072 46.848-39.072h224.384c21.632 0 39.104-17.504 39.104-39.104 0-21.536-17.472-39.072-39.104-39.072h-224.384c-67.328 0-124.096 51.424-124.992 116.64v781.984c0 67.904 57.312 120.128 126.688 117.216h686.112c67.168 2.912 124.256-49.056 124.992-116.768v-310.912c0-21.536-17.472-39.104-39.072-39.104s-39.104 17.568-39.104 39.104v310.464h0.032z" />
<glyph unicode="&#xe93b;" glyph-name="takeDraft2" d="M260.704 41.312l143.296 133.664-143.296 133.664v-65.248h-178.592v-136.864h178.592v-65.216zM757.088 955.968h-444.928c-101.888 0-184.832-87.008-184.832-194.016v-431.264h71.584v431.264c0 65.568 50.752 118.848 113.248 118.848h444.928c62.432 0 113.184-53.28 113.184-118.848v-628.032c0-65.408-50.752-118.688-113.184-118.688h-444.928c-19.584 0-37.856 5.664-53.952 14.88h-101.568c32.8-53.984 90.048-90.048 155.52-90.048h444.928c101.92 0 184.768 87.008 184.768 193.888v628c0.032 107.008-82.848 194.016-184.768 194.016zM352.16 704.384h378.848c13.344 0 23.872 11.232 23.872 25.12s-10.528 25.184-23.872 25.12h-378.848c-13.184 0-23.808-11.232-23.808-25.12s10.624-25.12 23.808-25.12zM352.16 536.928h378.848c13.344 0 23.872 11.232 23.872 25.088 0 13.92-10.528 25.184-23.872 25.024h-378.848c-13.184 0-23.808-11.136-23.808-25.024 0-13.856 10.624-25.088 23.808-25.088zM352.16 361.76h378.848c13.344 0 23.872 11.072 23.872 24.96 0 13.824-10.528 25.184-23.968 25.184h-378.752c-13.28 0-23.968-11.232-23.968-25.184 0-13.92 10.784-24.96 23.968-24.96zM439.488 225.184c-10.4 0-18.784-11.296-18.784-25.088 0-13.984 8.384-25.12 18.784-25.12h296.672c10.368 0 18.688 11.168 18.688 25.12 0 13.824-8.32 25.088-18.688 25.088h-296.672z" />
<glyph unicode="&#xe93c;" glyph-name="auditRelease" d="M928.32 955.968h-836.384c-48.384 0-87.904-36.032-87.904-84.576v-679.68c0-45.408 34.656-83.104 78.848-87.744h343.648v-79.68h-81.984c-23.232 0-42.048-18.848-42.048-42.112 0-23.2 18.848-42.112 42.048-42.112h338.016c23.296 0 42.112 18.944 42.112 42.112 0 23.296-18.848 42.112-42.112 42.112h-87.168v79.68h349.376c43.648 4.672 75.2 42.336 75.2 87.744v679.68c0 48.544-43.296 84.576-91.648 84.576zM935.328 253.152c0-30.688-21.312-56.16-50.848-59.296h-742.24c-29.856 3.136-53.28 28.608-53.28 59.296v560.576c0 32.8 26.784 57.088 59.456 57.088h724.992c32.672 0 61.92-24.288 61.92-57.088v-560.576zM754.464 738.944c-17.952-0.32-33.12-6.72-45.568-19.168l-291.904-292.224-100.384 99.424c-12.448 12.448-27.616 18.848-45.568 19.168-17.952 0.384-33.12-5.664-45.568-18.080s-18.784-27.104-19.168-44.032c-0.32-16.928 5.728-31.584 18.144-44.128l143.872-145.056c12.448-12.448 28.64-18.464 48.64-18.080 19.968 0.32 36.16 6.72 48.608 19.072l332.384 332.736c12.352 12.448 18.912 27.776 19.584 46.080s-5.184 33.76-17.536 46.080c-12.416 12.544-27.584 18.496-45.536 18.208z" />
<glyph unicode="&#xe93d;" glyph-name="return1" d="M780.64 955.968h-537.28c-89.056 0-161.184-72.672-161.184-162.4v-691.136c0-89.76 72.096-162.4 161.184-162.4h537.28c89.056 0 161.184 72.672 161.184 162.4v691.136c0 89.76-72.128 162.4-161.184 162.4v0zM834.368 102.432c0-29.92-24.064-54.176-53.76-54.176h-537.248c-29.696 0-53.728 24.288-53.728 54.176v691.136c0 29.92 24.032 54.176 53.728 54.176h537.28c29.696 0 53.76-24.288 53.76-54.176v-691.136h-0.032zM531.232 534.080v68.832c0 12.704-7.008 24.416-18.144 30.368-11.296 6.016-24.864 5.312-35.488-1.696l-207.296-137.76c-9.6-6.336-15.328-17.184-15.328-28.64 0-11.52 5.792-22.272 15.328-28.672l207.296-137.76c10.624-7.136 24.192-7.712 35.392-1.792 11.232 6.112 18.24 17.728 18.24 30.368v68.928c90.208 0 166.784-57.568 195.232-137.76 7.648 21.6 12.064 44.704 12.064 68.8-0.032 114.304-92.8 206.784-207.296 206.784v0z" />
<glyph unicode="&#xe93e;" glyph-name="approval" d="M367.488 683.584l0.512-0.576v-0.32c12.704-15.712 29.44-25.728 48.768-25.728h190.688c18.272 0 35.072 9.76 47.712 24.48v0.64l0.48 0.608v0.32c12.992 15.968 20.352 37.792 20.448 60.608 0.16 22.816-6.88 44.704-19.584 60.928l-0.832 0.992c-12.128 15.776-29.76 25.696-48.192 25.696h-190.688c-19.328 0-36.064-9.92-48.768-25.696-13.056-16.128-20.416-38.272-20.352-61.248 0-23.744 7.616-44.896 19.84-60.288v-0.416h-0.032zM398.496 767.328v-0.256c4.576 6.016 11.168 9.568 18.272 9.568h190.688c7.136 0 13.472-3.52 18.272-9.312v-0.256c4.64-5.472 7.328-14.144 7.328-22.816 0-8.928-2.72-17.376-7.328-23.168-4.8-5.728-11.392-9.6-18.272-9.6h-190.688c-6.88 0.096-13.408 3.552-18.272 9.6-4.864 6.176-7.584 14.464-7.584 23.168 0 8.672 3.072 17.376 7.584 23.072v0zM941.536 720.544l-2.24 2.912c-23.616 29.504-56.224 48.352-92.416 48.352h-37.12l-42.72 149.856c-4.064 20.192-18.272 34.304-34.56 34.304h-441.056c-14.528 0-28.192-11.552-33.792-30.080l-43.712-154.112h-37.056c-34.72 0-66.72-17.952-90.080-46.688l-2.304-1.664c-23.072-30.080-38.112-71.488-38.112-116.416v-502.080c0-45.536 15.072-87.36 38.112-116.128 23.616-30.176 56.672-48.768 92.416-48.768h670.016c34.72 0 67.872 17.536 92.096 48.768h0.32c24.576 30.56 38.432 72.416 38.368 116.128v502.112c-0.032 43.552-14.016 83.648-36.16 113.504v0zM905.984 104.928c0-20.896-6.688-39.2-17.344-52.96l-0.512-0.672c-10.752-12.832-25.056-20.832-41.248-20.832h-670.016c-15.424 0-30.4 7.68-41.312 21.504-11.2 13.792-17.792 32.416-17.792 52.96v502.112c0 20.512 6.592 38.88 17.792 52.256l1.088 1.984c10.592 12.416 24.48 20.16 40.256 20.16h62.016c16.768 0 30.912 14.048 34.816 33.984l42.656 149.472h391.008l43.872-153.92c4.864-18.016 18.848-29.536 33.568-29.536h62.080c16.192 0 31.008-8.352 41.76-22.144l1.216-1.664c10.496-13.376 16.064-30.752 16.064-50.592v-502.080h0.032v-0.032zM792.96 368.8h-562.272c-11.968 0-21.312-12.512-21.312-26.624 0-14.72 9.344-27.584 21.312-27.584h562.272c11.904 0 21.856 12.864 21.856 27.584 0 14.144-9.952 26.624-21.856 26.624v0zM792.96 561.824h-562.272c-11.968 0-21.312-12.48-21.312-27.84 0-14.112 9.344-26.624 21.312-26.624h562.272c11.904 0 21.856 12.512 21.856 26.624 0 15.36-9.952 27.84-21.856 27.84v0zM792.96 176.128h-562.272c-5.632 0-11.072-2.816-15.136-7.84-3.968-5.12-6.176-11.904-6.176-19.136 0-15.36 9.344-26.944 21.312-26.944h562.272c11.904 0 21.856 11.552 21.856 26.944 0 14.72-9.952 26.976-21.856 26.976v0z" />
<glyph unicode="&#xe93f;" glyph-name="onVersion1" d="M766.016 544.96h-158.784v-65.568h158.784v65.568zM766.016 675.648h-158.784v-65.568h158.784v65.568zM726.144 283.168h-118.944v-65.6h118.944v65.6zM766.016 413.824h-158.784v-65.088h158.784v65.088zM892.96 709.856v130.688h-888.928v-719.456c0-36.512 28.64-65.6 63.296-65.6h857.536c52.672 0 95.136 43.872 95.136 98.368v556h-127.040zM829.248 121.056h-761.92v653.888h761.952v-653.888zM276 252.608c14.016-21.12 26.88-42.080 38.688-62.88 37.6 56.256 56.416 147.616 56.416 274.080v29.024h111.36c-6.976-40.672-17.952-77.504-32.832-110.432-14.912 30.784-26.816 66.528-35.648 107.232l-41.472-43.52c10.72-45.888 25.248-86.912 43.552-123.104-19.712-28.128-43.392-52.512-71.072-73.088 16.16-27.232 27.328-47.136 33.568-59.648 27.488 22.944 51.808 48.096 72.928 75.488 21.92-29.568 47.328-54.72 76.192-75.488l38.208 68.768c-29.984 14.528-56.064 35.392-78.272 62.624 28.864 52.32 48 111.52 57.312 177.632v62.88h-173.856v51.616c78.592 8.224 141.696 17.536 189.216 27.936l-16.768 70.4c-52.512-15.072-129.408-25.632-230.688-31.712v-202.624c2.176-104.992-10.080-180.032-36.832-225.184zM151.552 187.040c23.776 52.672 35.648 118.048 35.648 196.16h32.416v-185.952h55.456v246.144h-88.064v49.984h112.32v60.192h-24.224v161.76h-55.488v-161.792h-32.64v149.984h-54.496v-254.752c1.568-101.056-8.576-173.44-30.304-217.152 17.696-15.008 34.176-29.888 49.376-44.576z" />
<glyph unicode="&#xe940;" glyph-name="print1" d="M951.36 748.288h-71.328v140.896c0 36.8-29.888 66.784-66.56 66.784h-602.88c-36.736 0-66.56-29.984-66.56-66.784v-140.896h-71.36c-36.672 0-66.56-29.984-66.56-66.784v-467.008c0-36.8 29.888-66.784 66.56-66.784h71.328v-140.896c0-36.8 29.824-66.784 66.56-66.784h602.88c36.672 0 66.56 29.984 66.56 66.784v140.896h71.328c36.672 0 66.496 29.984 66.496 66.784v467.008c0.064 36.8-29.76 66.784-66.464 66.784zM259.424 840.096h505.12v-91.808h-505.12v91.808zM764.576 55.904h-505.152v299.52h505.12v-299.52zM902.464 263.584h-22.432v144.096c0 35.072-28.416 63.616-63.328 63.616h-609.344c-34.944 0-63.328-28.576-63.328-63.616v-144.096h-22.432v368.736h780.864v-368.736zM337.824 231.552h332.448c18.336 1.152 33.248 16.128 33.248 34.528s-14.912 33.312-33.248 33.312h-332.448c-18.336 0-33.248-14.912-33.248-33.312s14.88-33.376 33.248-34.528zM337.824 114.336h199.424c18.4 0 33.248 14.976 33.248 33.376s-14.848 33.408-33.248 33.408h-199.424c-18.336 0-33.248-15.008-33.248-33.408s14.88-33.376 33.248-33.376z" />
<glyph unicode="&#xe941;" glyph-name="fontSize" d="M863.008 485.632h-103.84l-83.424-224.704 36.16-113.216 0.512 1.632h180.064l37.472-116.832h90.048l-156.992 453.12zM733.344 220.448l68.288 180.896 68.256-180.896h-136.544zM272.256 872.192l-268.224-848.384h124.288l63.456 201.952h310.816l64.48-201.952h155.712l-271.232 848.384h-179.296zM227.904 348.192l117.664 378.752 117.952-378.752h-235.616z" />
<glyph unicode="&#xe942;" glyph-name="undo3" d="M229.472 486.976h475.84c17.408 0 29.312 12.576 29.312 38.56 0 17.856-11.904 39.744-29.376 39.744h-475.776c-17.472 0-29.28-21.92-29.28-39.744 0-17.888 11.808-38.56 29.28-38.56zM229.6 681.632l209.184-1.216c17.472 0 29.344 21.984 29.344 39.904 0 17.888-11.872 39.84-29.344 39.84l-209.184 1.216c-17.472 0-29.28-21.92-29.28-39.904 0-17.952 11.808-39.84 29.28-39.84zM401.856 57.6h-232.704c-24.256 0.128-43.872 20.224-43.872 44.992v731.456c0 24.768 19.616 44.928 43.872 44.928h597.504c24.256 0 54.688-15.712 54.688-40.608v-468.704c0-35.232 38.56-39.104 38.56-39.104 22.624 0 38.528 20.928 38.528 39.104v468.736c0 60.544-55.392 117.568-110.272 117.568h-640.448c-54.752 0-99.328-44.48-99.328-100.64v-774.72c0-56.096 44.48-101.632 99.328-101.792h254.656c16.128 0 27.52 9.632 27.52 40.832 0 25.536-13.76 37.92-28.128 37.92h0.096zM782.784 252.544h-192.864l57.024 52.384c14.592 14.848 14.656 38.976 0.096 53.888-14.592 14.944-38.144 14.944-52.736 0l-116.416-119.424c-14.496-14.912-14.496-38.944 0-53.856l116.416-117.44c14.528-14.848 38.080-14.848 52.608 0 0.064 0 0.064 0 0.064 0v0.128c14.592 14.944 14.592 38.976 0 53.888l-57.024 52.352h192.928c84.64 0 115.68-15.456 115.68-78.112 0-59.264-37.216-78.112-115.68-78.112h-77.184c-20.576 0-38.56-18.016-38.56-39.040 0-21.088 18.080-39.104 38.56-39.104h77.184c162.752 0 192.768 48.384 192.768 156.256-0.032 108.96-25.856 156.192-192.864 156.192v0z" />
<glyph unicode="&#xe943;" glyph-name="shear" d="M924.672 177.952c-33.728 34.176-76.672 51.872-116.768 51.872h-21.568l-47.168 47.936 188.928 192.032c47.168 48.032 47.168 144.064 0 192.096l-283.328-288-283.488 288c-47.168-48.032-47.168-143.968 0-192.096l188.96-192.032-47.168-47.936h-21.568c-40.128 0-83.072-17.696-116.768-51.872-60.352-60.992-68.48-151.808-18.208-202.688 22.176-22.368 52-33.376 83.52-33.376 40.096 0 83.040 17.568 116.768 51.744 39.584 40.128 56.704 93.056 49.536 139.072l48.448 49.056 48.32-49.056c-7.136-46.112 9.952-98.944 49.6-139.072 33.728-34.176 76.672-51.744 116.672-51.744 31.584 0 61.344 11.008 83.52 33.376 50.208 50.848 42.080 141.664-18.24 202.688zM527.232 75.68c-5.664-13.44-14.048-25.824-24.864-36.672-10.816-10.944-23.040-19.424-36.288-25.184-11.936-5.184-24.448-7.936-35.936-7.936-11.296 0-27.072 2.56-39.104 14.688-11.904 12.128-14.464 28-14.464 39.264 0 11.68 2.688 24.128 7.808 36.192 5.632 13.312 14.016 25.76 24.832 36.576 10.816 11.008 23.008 19.424 36.288 25.248 11.968 5.184 24.352 7.872 35.968 7.872 11.136 0 27.072-2.432 39.104-14.624 11.904-12.064 14.4-27.936 14.4-39.264 0-11.648-2.688-24.16-7.744-36.16zM644.736 209.952c-36.928 0-66.784 30.368-66.784 67.808 0 37.504 29.856 67.872 66.784 67.872 36.8 0 66.784-30.368 66.784-67.872 0-37.44-29.952-67.808-66.784-67.808zM898.368 20.576c-11.936-12.128-27.808-14.688-39.040-14.688-11.552 0-24.064 2.752-35.936 7.936-13.312 5.76-25.536 14.24-36.288 25.184-10.816 10.944-19.168 23.264-24.864 36.672-5.088 12-7.776 24.448-7.776 36.128 0 11.328 2.496 27.2 14.432 39.264 11.968 12.192 27.872 14.624 39.040 14.624 11.68 0 24.064-2.688 35.968-7.872 13.28-5.824 25.536-14.24 36.416-25.248 10.688-10.944 19.072-23.264 24.704-36.576 5.184-12.064 7.776-24.512 7.776-36.192 0-11.232-2.464-27.136-14.432-39.232zM110.72 19.36v857.248c0 8.544 7.136 15.936 15.648 15.936h719.584c8.416 0 15.584-7.264 15.584-15.936v-158.976h62.624v158.976c0 43.68-35.232 79.328-78.208 79.328h-719.552c-43.008 0-78.208-35.584-78.208-79.328v-857.248c0-43.552 35.232-79.328 78.208-79.328h138.464v63.424h-138.464c-8.48 0.032-15.68 7.424-15.68 15.904z" />
<glyph unicode="&#xe944;" glyph-name="content_manage" d="M64 640v-624c0-44.096 35.904-80 80-80h736c44.096 0 80 35.904 80 80v864c0 44.128-35.904 80-80 80h-496c-14.304 0-39.328-4.448-90.912-42.176-30.304-22.272-65.728-53.184-99.712-87.2s-64.928-69.408-87.2-99.712c-37.792-51.584-42.176-76.608-42.176-90.912zM320 857.952v-153.952h-153.952c17.792 22.976 41.888 50.688 72.576 81.376s58.4 54.784 81.376 72.576zM128 640h224c17.696 0 32 14.304 32 32v224c0.032 0 496 0 496 0 8.672 0 16-7.328 16-16v-864c0-8.672-7.328-16-16-16h-736c-8.672 0-16 7.328-16 16v624zM754.24 807.872c60.8 0 110.176-49.312 110.176-110.112 0-24.832-8.224-47.68-22.016-66.080l-44.064-44.032-154.144 154.176 44.064 44.032c18.4 13.824 41.216 22.016 65.984 22.016zM203.648 301.248l-44.064-198.24 198.24 44.064 407.456 407.488-154.144 154.176-407.488-407.488zM652.128 557.632l-308.384-308.384-37.984 37.888 308.352 308.448 38.016-37.952z" />
<glyph unicode="&#xe945;" glyph-name="takeDraft" d="M756.128 7.712h-622.72c-71.36 0-129.376 57.984-129.376 129.248v622.080c0 71.264 58.016 129.248 129.376 129.248h425.44c36.96 0 67.072-30.048 67.072-67.040 0-36.96-30.080-67.040-67.072-67.040h-420.608v-612.384h613.088v232.256c0 36.96 30.080 67.040 67.136 67.040 36.96 0 67.072-30.048 67.072-67.040v-237.12c-0.032-71.264-58.048-129.248-129.408-129.248zM445.344 276.32c-2.304 0-4.672 0.128-7.072 0.416-0.672 0.032-1.504 0.16-2.368 0.288-1.664 0.256-3.264 0.512-4.832 0.832-0.8 0.224-1.536 0.384-2.24 0.576-1.376 0.352-3.040 0.768-4.64 1.344-0.608 0.192-1.216 0.384-1.856 0.64l-0.544 0.192c-1.376 0.544-2.784 1.088-4.16 1.728-0.704 0.352-1.44 0.672-2.112 0.96-1.504 0.768-2.912 1.504-4.16 2.24-0.704 0.448-1.376 0.832-2.112 1.28-1.536 0.96-2.72 1.824-3.968 2.72-0.544 0.384-1.344 0.928-2.112 1.632-1.12 0.864-2.304 1.984-3.552 3.072-0.128 0.128-0.256 0.256-0.48 0.448l-1.568 1.504-196.64 196.448c-12.768 12.736-19.776 29.696-19.776 47.744 0 18.016 7.008 35.008 19.776 47.776 12.768 12.736 29.76 19.776 47.808 19.776s35.072-7.040 47.84-19.808l153.312-153.184 459.712 376.384c12.032 9.856 27.264 15.296 42.784 15.296 20.384 0 39.392-8.992 52.32-24.704v0c23.616-28.8 19.36-71.456-9.44-95.040l-507.008-415.2c-0.672-0.576-1.504-1.184-2.368-1.824-0.864-0.672-1.6-1.248-2.368-1.76-1.056-0.736-2.048-1.344-3.040-1.952l-0.544-0.32c-0.32-0.224-0.864-0.576-1.44-0.864-1.504-0.8-2.72-1.472-3.904-2.016-0.672-0.288-1.344-0.64-1.984-0.896-0.928-0.416-2.368-0.992-3.776-1.504-0.416-0.192-1.12-0.448-1.856-0.672-1.184-0.448-2.432-0.768-3.712-1.12-0.544-0.16-1.12-0.352-1.792-0.48-1.6-0.384-2.784-0.672-3.968-0.864-1.056-0.192-2.24-0.352-3.424-0.512-0.672-0.128-1.664-0.256-2.656-0.32-1.856-0.128-3.968-0.256-6.080-0.256zM447.264 335.36l5.088-20.576-4.832 20.8-0.256-0.224z" />
<glyph unicode="&#xe946;" glyph-name="issueGroup" d="M988.224 332.576h-953.152c-17.152 0-31.040-13.888-31.040-31.072v-330.432c0-17.12 13.888-31.040 31.040-31.040h953.152c17.216 0 31.136 13.92 31.040 31.040v330.432c0 17.184-13.888 31.072-31.040 31.072zM957.184 2.176h-891.008v268.288h891.008v-268.288zM989.184 672.16c-17.024 0-30.816-13.888-30.816-31.040v-221.6h-372.48v474.368h372.416v-11.168c0-17.12 13.824-31.040 30.848-31.040 16.992 0 30.784 13.92 30.784 31.040v42.208c0.064 17.152-13.728 31.040-30.784 31.040h-434.080c-16.992 0-30.816-13.888-30.816-31.040v-536.544c-0.064-17.152 13.76-31.072 30.816-31.072h434.112c16.992 0 30.784 13.92 30.784 31.072v252.736c0 17.152-13.792 31.040-30.784 31.040zM923.392 807.456l-169.888-259.968-67.52 84.992c-13.344 16.768-38.464 20.128-56.096 7.392-17.664-12.736-21.12-36.672-7.744-53.472l102.656-129.28c7.584-9.568 19.424-15.168 31.936-15.168 0.608 0 1.248 0.032 1.824 0.064 13.184 0.576 25.216 7.296 32.192 17.952l200.672 307.072c11.68 17.92 5.984 41.44-12.768 52.576-18.848 11.2-43.552 5.728-55.264-12.16zM30.688 410.24h406.4c14.656 0 26.656 12 26.656 26.656v10.144c0 14.656-12 26.656-26.656 26.656h-406.4c-14.656 0-26.656-12-26.656-26.656v-10.144c0-14.656 12-26.656 26.656-26.656zM30.688 570.976h406.4c14.656 0 26.656 12 26.656 26.688v10.112c0 14.688-12 26.688-26.656 26.688h-406.4c-14.656 0-26.656-12-26.656-26.688v-10.112c0-14.656 12-26.688 26.656-26.688zM30.688 731.744h406.4c14.656 0 26.656 12 26.656 26.656v10.144c0 14.656-12 26.656-26.656 26.656h-406.4c-14.656 0-26.656-12-26.656-26.656v-10.144c0-14.656 12-26.656 26.656-26.656zM30.688 892.512h406.4c14.656 0 26.656 12 26.656 26.656v10.144c0 14.656-12 26.656-26.656 26.656h-406.4c-14.656 0-26.656-12-26.656-26.656v-10.144c0-14.656 12-26.656 26.656-26.656z" />
<glyph unicode="&#xe947;" glyph-name="tuneVersion" d="M947.328 506.912v-412.672c0-44.992-36.672-81.632-81.664-81.632h-707.424c-45.088 0.032-81.6 36.576-81.664 81.632v707.488c0 45.024 36.64 81.632 81.728 81.632h398.496v72.576h-398.496c-85.152-0.032-154.208-69.056-154.272-154.208v-707.488c0-85.024 69.152-154.176 154.272-154.176h707.456c85.12 0.064 154.144 69.056 154.208 154.176v412.672h-72.64zM507.68 520.64l-84.288 84.384-89.92-335.52 335.52 89.856-84.32 84.288 224.928 224.864 84.224-84.384 89.92 335.552-335.488-89.856 84.32-84.384-224.896-224.8z" />
<glyph unicode="&#xe948;" glyph-name="signVersion" d="M394.4 592.544l-47.84 43.904-40.256-9.632 46.080-143.328 31.648 9.024-13.856 42.72c-7.424 23.040-14.304 43.328-21.312 61.824h0.576c12.672-14.592 28.288-30.336 42.016-43.328l48.992-45.504 33.984 10.048-44.32 137.664-30.464-7.296 13.28-40.384c6.848-21.44 13.696-39.968 21.312-57.312h-0.608c-11.52 14.048-25.952 29.184-39.232 41.6zM542.4 683.52l-84.704-20.128 43.904-136.64 86.336 24.8-8 24.64-54.848-16.32-10.368 32.064 49.568 13.408-8 24.768-49.6-12.96-9.184 28.128 52.928 13.568-8.032 24.672zM616.672 642.56l-27.008 51.168-31.776-7.872 73.216-123.648 31.616 8.896-6.848 59.648c-1.184 14.016-2.944 26.4-5.856 41.536h0.608c6.4-14.016 12.096-25.824 18.496-38.208l28.16-52.192 29.92 8.448-9.792 134.304-27.552-6.72 6.848-54.080c2.336-15.616 4.672-31.328 7.424-46.080-6.24 13.568-12.672 26.976-20.128 41.12l-26.976 51.2-30.016-7.424 6.4-55.552c2.176-16.928 3.936-33.696 6.272-48.416h-0.608c-6.24 12.384-14.4 28.704-22.4 43.872zM776.16 716.768c10.944 2.752 20.128 1.152 25.376 0l-1.152 23.616c-8.16 1.6-17.952 2.176-31.232-0.608-26.976-6.272-38.464-26.976-32.224-47.84 6.432-18.528 23.072-26.976 44.352-29.152 15.584-1.76 21.888-4.544 24.768-11.808 2.912-7.872-1.76-15.168-13.856-18.528-10.944-2.912-23.072-2.336-31.072 0l2.336-24.8c8-2.336 21.856-2.336 35.136 1.76 30.464 8.896 39.104 30.336 32.8 50.592-5.792 17.408-18.336 25.856-40.8 28.64-16.736 2.176-24.192 3.936-27.104 11.808-2.336 6.144 1.728 13.408 12.672 16.32zM441.664 168.192c-24.8-11.232-47.264-21.44-65.632-30.912l-166.4 518.24 617.152 138.816c0 0 51.328-157.92 85.28-263.648l25.824 25.248-93.76 291.2-707.68-146.688 33.408-107.328-165.824-42.72c0 0 77.12-241.216 128.48-400.288 51.168-159.072 174.4-83.104 174.4-83.104s41.408 16.896 216.544 88.768l77.024 79.328-158.816-66.912zM188.352 176.512l-105.44 328.832 106.624 24.192 127.744-417.632c-104.288-28.576-128.928 64.608-128.928 64.608zM835.36 555.936l-466.336-140.448 16.192-50.592 464.608 144.96-14.464 46.080zM754.432 376.576l86.912 83.872-441.12-133.728 16.032-50.592 338.176 100.448zM1015.904 430.976l-49.76 48.576c-5.248 5.248-14.016 5.248-19.264 0l-26.368-25.824-0.608 0.576c-5.248 5.12-14.016 5.12-19.264 0l-210.4-205.344c-5.248-5.248-5.248-13.696 0-18.816l70.432-68.672c5.248-5.248 14.016-5.248 19.264 0l210.24 205.344c5.408 5.248 5.408 13.568 0 18.816l-0.992 0.992 26.688 25.664c5.408 5.12 5.408 13.568 0.032 18.688zM672.192 200.288c-5.376 5.088-12.384 3.936-15.584-2.624l-67.36-134.304c-3.2-6.56-0.448-9.184 6.112-5.984l136.064 67.072c6.72 3.36 7.872 10.208 2.464 15.456l-61.696 60.384z" />
<glyph unicode="&#xe949;" glyph-name="submitTrial" d="M983.616 883.040h-241.568c-14.912 42.464-55.008 72.928-102.24 72.928s-87.328-30.464-102.24-72.928h-241.536c-19.968 0-36.16-22.4-36.16-42.56v-619.968c0-20.16 16.192-30.4 36.16-30.4h687.584c20 0 36.224 10.24 36.224 30.4v619.968c0 20.16-16.224 42.56-36.224 42.56zM531.264 810.080h72.416v36.48c0.032 20.16 16.224 36.448 36.224 36.448 19.936 0 36.128-16.32 36.192-36.448v-36.48h72.352v-72.928h-217.152v72.928zM947.424 263.072h-615.168v547.008h126.656v-145.888h361.92v145.888h126.624v-547.008zM789.696 649.984l-219.2-220.864-77.376 77.984c-7.552 7.904-20 8.128-27.84 0.512-0.192-0.16-0.352-0.352-0.544-0.512l-35.552-35.872c-7.712-7.936-7.744-20.64-0.064-28.576l126.848-127.84c8.032-8.032 20.672-8.384 28.992 0l268.672 270.752c7.904 7.584 8.16 20.192 0.608 28.128-0.192 0.192-0.384 0.384-0.576 0.544l-35.52 35.84c-7.936 7.84-20.608 7.776-28.448-0.096zM793.6 148.736c-0.192 0.064-0.416 0.064-0.608 0.064h-581.696l0.192 536.864c0.096 9.312-7.296 16.992-16.544 17.12-0.224 0-0.48 0-0.704 0h-43.2c-9.344 0.128-17.088-7.424-17.216-16.896 0-0.032 0-0.128 0-0.192l-0.224-576.032v-22.336c0-9.312 7.488-16.832 16.672-16.832h642.688c9.28-0.128 16.896 7.328 17.056 16.672 0 0.224 0 0.48 0 0.704v43.488c0.224 9.376-7.104 17.216-16.416 17.376zM664.128 18.304c-0.192 0-0.384 0-0.608 0h-581.632l0.16 536.896c0.128 9.344-7.296 17.024-16.544 17.152-0.224 0-0.48 0-0.704 0h-43.168c-9.376 0.128-17.088-7.424-17.248-16.864 0-0.064 0-0.128 0-0.224l-0.224-576.064v-22.304c0-9.312 7.488-16.832 16.704-16.832h642.656c9.28-0.128 16.896 7.328 17.088 16.672 0 0.224 0 0.48 0 0.704v43.456c0.192 9.408-7.168 17.216-16.48 17.408z" />
<glyph unicode="&#xe94a;" glyph-name="undoPass" d="M991.008 112.672l-55.36 45.408v543.904l-254.176 253.984h-593.088v-102.944l-15.712 12.896-39.68-48.32 55.392-45.44v-832.128h847.232v137.248l15.712-12.896 39.68 48.288zM808.544 701.984h-127.104v126.976l127.104-126.976zM173.12 871.296h423.616v-253.984h254.112v-389.696l-181.984 149.248h73.216c12.32 0 22.816 7.584 27.232 18.304 3.040 7.2 3.008 15.296-0.032 22.432-1.376 3.424-3.456 6.432-5.952 8.992-0.064 0.096-0.128 0.192-0.192 0.256v0.032c-0.192 0.16-0.352 0.384-0.576 0.544l-176.96 176.928c-11.328 11.328-29.664 11.328-40.992 0-11.328-11.296-11.328-29.664 0-40.96l127.648-127.52h-75.296l-423.84 347.648v87.776zM850.88 24.672h-677.76v677.984l325.28-266.784h-216.512c-16.288 0-29.504-13.216-29.504-29.504s13.216-29.504 29.504-29.504h288.448l115.072-94.368h-403.168c-3.904 0.064-7.808-0.672-11.488-2.208-10.752-4.416-18.368-14.912-18.368-27.264 0-9.984 5.312-18.336 12.864-23.712l173.792-173.632c11.328-11.328 29.664-11.328 40.992 0 11.296 11.328 11.296 29.632 0 40.928l-127.008 126.944h389.088c4.288 0 8.288 0.992 11.936 2.624l96.8-79.392v-122.112z" />
<glyph unicode="&#xe94b;" glyph-name="toPass" d="M686.112 955.968h-609.44v-1015.936h870.688v761.952l-261.248 253.984zM686.112 828.96l130.624-126.976h-130.624v126.976zM860.256 24.672h-696.544v846.624h435.328v-253.984h261.184v-592.64zM748.48 282.496h-472.576c-4.032 0.064-8.032-0.672-11.808-2.208-11.040-4.416-18.88-14.912-18.88-27.264 0-9.984 5.408-18.336 13.248-23.712l178.592-173.632c11.648-11.328 30.496-11.328 42.112 0s11.616 29.632 0 40.928l-130.528 126.944h399.84c16.768 0 30.336 13.184 30.336 29.472s-13.568 29.472-30.336 29.472zM545.504 604.352c-11.616-11.296-11.616-29.664 0-40.96l131.2-127.52h-401.184c-16.736 0-30.304-13.216-30.304-29.504s13.568-29.504 30.304-29.504h472.96c12.672 0 23.456 7.584 28 18.304 3.136 7.2 3.104 15.296-0.032 22.432-1.408 3.424-3.552 6.432-6.112 8.992-0.064 0.096-0.096 0.192-0.16 0.256v0.032c-0.192 0.16-0.384 0.384-0.608 0.544l-181.952 176.928c-11.616 11.328-30.496 11.328-42.112 0z" />
<glyph unicode="&#xe94c;" glyph-name="undoSubmit" d="M1006.56 249.76c-17.888 18.048-46.88 18.048-64.768 0l-46.432-48.032-136.352 112.928 44.416 44.8v341.696l-252.416 254.784h-504.864v-50.72l-2.112 1.76-40.032-49.28 42.112-34.88v-781.792h441.76l63.104 63.68h-441.728v665.824l188.64-156.288h-62.432v-63.68h139.296l76.896-63.712h-216.192v-63.68h293.056l76.896-63.712h-369.952v-63.648h378.624v56.512l237.024-196.384-99.68-103.136-87.648 88.48c-17.728 17.92-46.496 17.92-64.256 0-17.728-17.888-17.728-46.944 0-64.832l111.584-112.608c2.016-3.68 4.576-7.168 7.616-10.272 17.952-18.048 46.944-18.048 64.8 0l138.624 143.488 8.544-7.072 40.032 49.248-4.32 3.584 40.128 41.536c17.952 18.080 17.952 47.36 0.032 65.408zM474.272 550.56h139.84v63.68h-216.704l-288.16 238.72v39.296h441.76v-191.104h189.312v-371.008l-126.208 104.576v52.128h-62.944l-76.896 63.712z" />
<glyph unicode="&#xe94d;" glyph-name="submit" d="M592.128 486.88h-374.272v-63.68h374.272v63.68zM93.056 892.256v0h436.672v-191.104h187.136v-405.376l62.368 63.712v341.664l-249.472 254.816h-499.072v-914.976h436.672l62.368 63.68h-436.672v787.584zM592.128 614.272h-374.272v-63.712h374.272v63.712zM217.856 295.776h374.272v63.712h-374.272v-63.712zM980.032 249.76c-17.728 18.080-46.368 18.080-64.032 0l-188.128-196.96-86.656 88.512c-17.568 17.92-46.016 17.92-63.52 0-17.536-17.888-17.536-46.944 0-64.832l110.304-112.64c2.016-3.648 4.544-7.136 7.552-10.24 17.696-18.016 46.336-18.016 64.032 0l220.448 230.784c17.696 18.016 17.696 47.328 0 65.376z" />
<glyph unicode="&#xe94e;" glyph-name="add_puzzle" d="M959.84 886.88c0.032-0.032 0.096-0.064 0.128-0.16v-877.472c-0.032 0-0.064-0.064-0.128-0.096h-895.744c-0.032 0.032-0.096 0.064-0.128 0.096v877.472c0.032 0.032 0.032 0.128 0.128 0.16h895.744zM959.968 960h-895.968c-35.2 0-64-32.896-64-73.12v-877.696c0-40.256 28.8-73.184 64-73.184h896c35.104 0 64 32.928 64 73.184v877.696c0 40.224-28.896 73.12-64.032 73.12v0zM474.016 929.984h76v-964h-76v964zM502.016 485.984h520v-76h-520v76z" />
<glyph unicode="&#xe94f;" glyph-name="add_user" d="M490.304 77.344h-266.784c-33.344 0-60.384 26.848-60.384 60 26.912 103.424 129.024 180.032 241.312 180.032 27.904 0 55.2-4.736 80.864-13.472 25.92 67.552 75.744 122.656 139.136 156.576 13.216 29.696 21.344 62.304 21.344 96.928v120c0 132.576-108.032 240.032-241.344 240.032s-241.312-107.456-241.312-240.032v-120c0-64.224 25.728-122.336 67.104-165.344-94.656-52.192-169.12-144.672-187.744-254.72 0-99.36 81.056-180 181.024-180h361.888c0.544 0 1.024 0.128 1.472 0.128-41.728 31.040-75.52 71.872-96.576 119.872zM283.84 677.408c0 66.208 54.016 120.032 120.64 120.032s120.64-53.696 120.64-120.032v-120c0-66.208-54.016-120-120.64-120s-120.64 53.792-120.64 120v120zM940.96 257.6h-122.336v118.496c0 33.824-27.648 61.312-61.728 61.312-34.016 0-61.632-27.488-61.632-61.312v-118.496h-122.4c-34.112 0-61.632-27.456-61.632-61.376s27.52-61.312 61.632-61.312h122.4v-116.288c0-33.824 27.616-61.28 61.632-61.28 34.048 0 61.728 27.424 61.728 61.28v116.288h122.336c34.144 0 61.76 27.424 61.76 61.312s-27.584 61.376-61.76 61.376z" />
<glyph unicode="&#xe950;" glyph-name="add-articles" d="M137.344 175.36c0-18.88 6.72-34.88 20.16-48 13.408-13.056 29.568-19.616 48.448-19.616h271.232v-136.384h-339.84c-18.912 0-36.544 3.616-52.832 10.944-16.352 7.264-30.688 17.12-43.040 29.504-12.32 12.32-22.112 26.688-29.408 43.008-7.264 16.384-10.88 34.016-10.88 52.928v681.792c0 18.88 3.616 36.544 10.88 52.864 7.296 16.384 17.088 30.752 29.408 43.104s26.688 22.144 43.040 29.44c16.288 7.296 33.92 10.944 52.832 10.944h749.312c18.88 0 36.544-3.648 52.864-10.912 16.32-7.296 30.592-17.12 42.976-29.44s22.144-26.72 29.44-43.104c7.264-16.352 10.88-33.984 10.88-52.864v-270.56l-136.16-3.296v68.736c0 18.88-6.688 35.072-20.16 48.576-13.44 13.44-29.6 20.128-48.48 20.128h-612.064c-18.88 0-35.040-6.688-48.448-20.128s-20.16-29.664-20.16-48.576v-409.088zM1022.816 161.504v96.512h-191.136v191.424h-94.816v-191.424h-191.136v-96.512h191.136v-191.36h94.816v191.36h191.136z" />
<glyph unicode="&#xe951;" glyph-name="add-content" d="M64 640v-624c0-44.096 35.904-80 80-80h736c44.096 0 80 35.904 80 80v864c0 44.128-35.904 80-80 80h-496c-14.304 0-39.328-4.384-90.912-42.208-30.304-22.208-65.728-53.152-99.712-87.168s-64.928-69.408-87.2-99.712c-37.792-51.552-42.176-76.576-42.176-90.912zM320 857.952v-153.952h-153.952c17.792 22.976 41.888 50.688 72.576 81.376s58.4 54.784 81.376 72.576zM128 640h224c17.696 0 32 14.336 32 32v224c0.032 0 496 0 496 0 8.672 0 16-7.328 16-16v-864c0-8.672-7.328-16-16-16h-736c-8.672 0-16 7.328-16 16v624zM780.256 430.496v-90.016h-221.248v-224.992h-93.76v224.992h-224.992v90.016h224.992v228.768h93.76v-228.736h221.248z" />
<glyph unicode="&#xe952;" glyph-name="add-pic" d="M713.216 89.312h-654.56c0 0.032-0.064 0.064-0.096 0.096v803.488c0.032 0.032 0.064 0.096 0.096 0.128h820.128c0.032-0.032 0.096-0.064 0.128-0.128v-643.52c9.536 4.192 20.512 6.624 33.088 6.624 9.504 0 17.824-1.76 25.568-4.192v641.216c0 36.864-26.432 66.976-58.624 66.976h-820.352c-32.224 0-58.592-30.112-58.592-66.976v-803.68c0-36.832 26.368-67.008 58.592-67.008h654.784c-8.64 21.088-8.704 45.824-0.16 66.976zM746.88 747.744c0-50.24-38.56-90.976-86.176-90.976s-86.144 40.736-86.144 90.976 38.56 90.976 86.144 90.976c47.616-0.032 86.176-40.736 86.176-90.976zM804.352 232.224h-689.44v121.312l201.088 363.872 229.824-303.232h57.44l201.088 181.92v-363.872zM921.216 40.672v-104.672h-62.688v104.672h-103.744v58.368h103.744v96.512h62.688v-96.512h102.784v-58.368h-102.784z" />
<glyph unicode="&#xe953;" glyph-name="arrow_bend1" d="M847.68-9.824l-167.84 286.080h111.904v343.424c0 63.2-50.080 114.432-111.904 114.432s-111.904-51.264-111.904-114.432v-343.392c0-126.368-100.224-228.832-223.808-228.832-123.648 0-223.808 102.464-223.808 228.832v343.392h-111.904l167.872 286.112 167.84-286.112h-111.904v-343.392c0-63.168 50.080-114.4 111.904-114.4s111.904 51.264 111.904 114.4v343.392c0 126.432 100.256 228.864 223.808 228.864 123.584 0 223.808-102.432 223.808-228.864v-343.392h111.936l-167.904-286.112z" />
<glyph unicode="&#xe954;" glyph-name="arrow_left1" d="M375.168 462.528l273.696 490.88v-1010.816l-273.696 519.936z" />
<glyph unicode="&#xe955;" glyph-name="arrow-down2" d="M877.248 338.752l-320-320c-24.992-24.992-65.504-24.992-90.496 0l-320 320c-24.992 24.992-24.992 65.504 0 90.496s65.504 24.992 90.496 0l210.752-210.752v613.504c0 35.36 28.64 64 64 64s64-28.64 64-64v-613.504l210.752 210.752c12.48 12.48 28.864 18.752 45.248 18.752s32.768-6.24 45.248-18.752c24.992-24.992 24.992-65.504 0-90.496z" />
<glyph unicode="&#xe956;" glyph-name="arrow-up2" d="M877.248 557.248l-320 320c-24.992 24.992-65.504 24.992-90.496 0l-320-320c-24.992-24.992-24.992-65.504 0-90.496s65.504-24.992 90.496 0l210.752 210.752v-613.504c0-35.36 28.64-64 64-64s64 28.64 64 64v613.504l210.752-210.752c12.48-12.48 28.864-18.752 45.248-18.752s32.768 6.24 45.248 18.752c24.992 24.992 24.992 65.504 0 90.496z" />
<glyph unicode="&#xe957;" glyph-name="bin" d="M128 640v-640c0-35.2 28.8-64 64-64h576c35.2 0 64 28.8 64 64v640h-704zM320 64h-64v448h64v-448zM448 64h-64v448h64v-448zM576 64h-64v448h64v-448zM704 64h-64v448h64v-448zM848 832h-208v80c0 26.4-21.6 48-48 48h-224c-26.4 0-48-21.6-48-48v-80h-208c-26.4 0-48-21.6-48-48v-80h832v80c0 26.4-21.6 48-48 48zM576 832h-192v63.2h192v-63.2z" />
<glyph unicode="&#xe958;" glyph-name="blocked" d="M874.048 810.048c-96.704 96.704-225.28 149.952-362.048 149.952s-265.344-53.248-362.048-149.952c-96.704-96.704-149.952-225.28-149.952-362.048s53.248-265.344 149.952-362.048c96.704-96.704 225.28-149.952 362.048-149.952s265.344 53.248 362.048 149.952c96.704 96.704 149.952 225.28 149.952 362.048s-53.248 265.344-149.952 362.048zM896 448c0-82.816-26.368-159.584-71.104-222.368l-535.264 535.264c62.784 44.768 139.552 71.104 222.368 71.104 211.744 0 384-172.256 384-384zM128 448c0 82.816 26.368 159.584 71.104 222.368l535.264-535.264c-62.784-44.768-139.552-71.104-222.368-71.104-211.744 0-384 172.256-384 384z" />
</font>
</defs>
</svg>
